<svg width="260" height="260" viewBox="0 0 260 260" fill="none" xmlns="http://www.w3.org/2000/svg">
<g clip-path="url(#clip0_1787_7107)">
<path d="M82.6468 7.71873C81.6819 8.04881 79.803 8.83592 78.5335 9.47069C76.7561 10.3847 75.8929 10.664 75.0296 10.664C74.2933 10.664 73.5061 10.8672 72.8968 11.2226C72.0843 11.6797 71.8811 11.9844 71.7034 12.873L71.4749 13.9902L70.0276 13.0762C68.6819 12.2129 68.4026 12.1367 66.4729 12.1113C65.305 12.0859 64.1624 12.1621 63.9339 12.2637C63.6038 12.4414 63.4261 12.289 63.096 11.7051L62.6897 10.918H60.3792H58.0686L60.2015 12.4414L62.3343 13.9648L62.2327 15.9961C62.1565 17.9004 62.2073 18.1289 62.8421 19.043C63.4261 19.8555 63.5022 20.1855 63.3499 21.0234C63.1722 22.1406 63.0706 22.0898 66.1429 22.4707C66.8538 22.5722 67.5647 22.6738 67.7425 22.7246C68.2249 22.9023 65.9651 24.832 64.8479 25.2383C64.1116 25.4922 63.8323 25.7461 63.7308 26.2539C63.6546 26.6094 63.2737 27.3203 62.8675 27.8281L62.1565 28.7422L61.5218 28.1328L60.887 27.5488L60.1253 28.4883C59.719 29.0215 58.7034 29.8086 57.8909 30.2402C56.8753 30.7734 56.139 31.4336 55.4534 32.373C54.4124 33.7949 54.0823 33.8965 54.0823 32.8555C54.0823 32.0683 53.9808 32.0937 51.9241 33.0078C49.9944 33.8711 50.3245 33.9726 47.887 31.8144C46.5667 30.6211 46.2366 30.4687 45.2718 30.4687H44.18V29.0469C44.18 27.7519 44.0784 27.498 43.012 26.1269C41.7171 24.4258 41.8186 24.4258 39.5335 26.1015L38.2894 26.9902L37.3753 26.5078C36.8675 26.2539 36.3597 26 36.2581 25.9492C36.1311 25.8984 36.055 26.0762 36.055 26.3555C36.055 27.0664 34.0999 27.2695 29.7835 27.041L26.4065 26.8633L25.8987 28.0312C25.6448 28.666 25.3401 29.7832 25.2386 30.4687L25.0608 31.7383L26.178 31.7637C26.7874 31.7637 27.803 31.9668 28.4378 32.1953C29.4026 32.5762 29.6058 32.7793 29.7835 33.5918C29.9104 34.125 29.9612 34.6328 29.8851 34.709C29.8089 34.7851 29.3519 34.6074 28.8948 34.3281L28.0569 33.8203L26.2288 34.6582L24.3753 35.5215V37.959V40.3965L25.8733 41.7676C27.1937 43.0117 27.4476 43.418 28.1839 45.4746L29.0218 47.7851L28.4632 49.3594C28.0062 50.6035 27.8538 51.873 27.6253 55.7324L27.3714 60.5566L26.1526 63.7305C25.3401 65.8633 24.8069 66.8789 24.5784 66.8281C24.4007 66.7773 23.639 66.6758 22.8772 66.5996C21.8108 66.4726 21.43 66.5234 21.2269 66.8281C20.8206 67.3867 18.4085 68.5547 17.6722 68.5547C15.7679 68.5547 11.2229 70.0273 10.1565 70.9922C9.80107 71.2969 8.70928 72.084 7.69365 72.7187C5.73857 73.9629 5.48467 74.4961 5.61162 76.6797C5.6624 77.289 5.45928 77.8984 4.97685 78.6348L4.26592 79.7012L4.69756 81.1738L5.1292 82.6465L4.51982 83.0019C4.21514 83.2051 3.40264 83.9414 2.74248 84.6016C1.80303 85.5156 1.52373 85.998 1.52373 86.6074C1.52373 87.166 1.65068 87.4199 2.03154 87.5215C2.71709 87.6992 2.66631 87.9277 1.82842 88.3086C0.127246 89.0449 -0.685254 90.7715 0.558887 90.9492C0.990527 91 1.16826 91.2539 1.26982 91.9141C1.44756 93.0058 4.79912 98.084 6.04326 99.1758L6.95732 99.9629L6.27178 101.131C5.89092 101.766 5.58623 102.35 5.58623 102.426C5.58623 102.502 6.37334 102.578 7.33818 102.578C8.30303 102.578 9.67412 102.705 10.3851 102.883C11.553 103.137 11.68 103.238 11.68 103.848C11.68 104.229 11.8577 104.711 12.0862 104.889C12.3147 105.066 12.594 105.473 12.6956 105.777C12.9241 106.361 13.9905 106.641 16.1233 106.641C17.3167 106.615 17.5452 106.514 20.0589 104.609C21.5062 103.492 22.8519 102.578 23.0042 102.578C23.1565 102.578 23.4358 102.756 23.6136 102.959C23.8675 103.264 23.8167 103.594 23.3597 104.711C22.8265 105.98 22.8011 106.209 23.0804 108.012C23.2327 109.078 23.3597 110.475 23.3597 111.084C23.3597 112.074 23.4612 112.252 24.1214 112.607C25.137 113.141 25.6448 113.09 26.7112 112.354C27.5999 111.744 27.8284 111.719 31.1546 111.719C33.0843 111.719 35.014 111.82 35.4202 111.922C36.639 112.277 38.2132 111.744 38.9749 110.729C39.3304 110.195 40.0667 109.662 40.7015 109.434C41.2854 109.205 42.5042 108.494 43.3929 107.834C44.2815 107.174 45.2718 106.641 45.6019 106.641C45.9573 106.641 46.3636 106.387 46.6429 105.98C47.2269 105.066 48.7503 104.152 50.8577 103.441C52.2542 102.959 53.1936 102.832 55.1233 102.832C57.9925 102.832 58.094 102.934 57.4847 105.193C57.0022 106.971 57.0276 108.672 57.5354 109.408C57.8401 109.84 57.9163 110.297 57.7894 111.135C57.7132 111.77 57.7386 112.709 57.8909 113.217C58.0179 113.725 58.1956 114.436 58.2718 114.816C58.3733 115.35 58.6526 115.578 59.6429 115.908C60.4808 116.187 61.1155 116.619 61.5726 117.203C62.0042 117.762 62.4358 118.066 62.8421 118.066C63.3499 118.066 63.4769 118.244 63.6292 118.955C63.7815 119.742 63.8577 119.844 64.9241 119.996C65.5589 120.098 66.8538 120.098 67.8186 120.021C69.1644 119.92 69.596 119.971 69.8499 120.25C70.4339 120.961 71.5765 121.393 72.0843 121.139C72.4397 120.936 72.6936 121.037 73.2522 121.621C73.6585 122.053 74.1663 122.383 74.3948 122.383C74.6233 122.383 75.1819 122.662 75.6644 123.018C76.2991 123.475 76.8323 123.652 77.7464 123.652C78.8382 123.652 78.9651 123.729 79.1175 124.287C79.1936 124.643 79.6253 125.201 80.0823 125.531C80.7679 126.039 81.2757 126.141 83.7893 126.293C87.4964 126.496 87.9026 126.572 88.9944 127.562C89.7308 128.197 89.9085 128.604 90.0862 129.746C90.2386 130.762 90.594 131.6 91.3558 132.717C92.0667 133.783 92.4222 134.57 92.4222 135.129C92.4222 135.967 92.4222 135.967 91.2796 135.891C90.2386 135.789 90.137 135.84 89.9847 136.475C89.8577 136.982 89.9847 137.338 90.5686 138.074C91.1272 138.76 91.3558 139.395 91.4573 140.41C91.5589 141.172 91.8128 142.289 92.0413 142.873L92.4729 143.965L96.4593 143.99C98.6429 144.016 101.106 143.99 101.969 143.965C103.797 143.914 104.076 144.219 103.467 145.666C103.239 146.174 103.086 147.342 103.086 148.383V150.186L104.94 151.379C105.93 152.039 107.073 152.699 107.479 152.877C108.444 153.309 108.748 154.629 108.723 158.107V160.977L107.707 162.17C106.742 163.338 105.625 166.182 105.625 167.502C105.625 168.391 106.666 172.021 107.174 172.809C107.783 173.799 107.809 175.475 107.225 177.607C106.869 178.979 106.844 179.334 107.123 179.842C107.377 180.299 107.377 180.604 107.174 180.984C106.692 181.873 106.844 182 108.647 182.305C110.145 182.584 110.551 182.584 111.592 182.203C112.735 181.822 112.862 181.822 113.268 182.203C113.699 182.584 113.776 182.584 114.41 182.076C115.096 181.518 115.528 181.568 115.528 182.203C115.528 182.457 115.883 182.559 116.949 182.559C118.168 182.559 118.524 182.686 119.362 183.346C119.92 183.777 120.479 184.387 120.657 184.666C121.19 185.656 121.875 188.754 122.028 190.887C122.205 192.867 122.256 193.02 122.942 193.375C123.576 193.705 123.856 193.705 125.684 193.273L127.741 192.791L128.198 193.375C129.467 195 129.416 197.539 127.994 201.271C127.233 203.303 127.233 203.379 127.715 203.633C127.969 203.76 128.528 203.887 128.934 203.887C129.34 203.887 130.203 204.115 130.813 204.395C132.463 205.131 132.793 206.121 132.768 210.361C132.768 213.637 132.768 213.662 132.082 214.195C131.701 214.475 130.711 214.982 129.873 215.312C128.959 215.668 127.715 216.48 126.725 217.318C125.862 218.105 124.491 219.273 123.678 219.908C120.682 222.371 117.889 225.316 117.559 226.357C117.381 226.916 116.67 228.033 116.01 228.846C115.324 229.658 114.588 230.674 114.334 231.08C114.08 231.486 113.674 231.893 113.369 231.969C113.09 232.07 112.455 232.451 111.948 232.857C111.186 233.441 111.059 233.695 111.16 234.33C111.237 234.939 111.414 235.117 112.049 235.27C112.709 235.396 112.912 235.32 113.42 234.711C114.157 233.771 115.401 233.822 116.162 234.812C116.442 235.193 117.381 236.209 118.244 237.098C119.133 237.961 119.844 238.9 119.844 239.154C119.844 239.408 120.047 239.789 120.326 240.043C120.733 240.424 120.809 240.424 121.114 240.068C121.291 239.84 121.672 239.535 121.951 239.383C122.408 239.154 122.662 239.332 124.033 240.805C125.328 242.201 125.735 242.48 126.42 242.48C127.106 242.48 127.537 242.785 129.137 244.461C130.178 245.527 131.092 246.492 131.194 246.594C131.321 246.695 132.463 247.812 133.783 249.082C135.866 251.088 138.074 252.637 138.862 252.637C138.989 252.637 139.369 252.205 139.674 251.672C139.979 251.164 141.299 249.641 142.569 248.32C143.864 247 145.285 245.324 145.742 244.639C146.225 243.928 147.393 242.404 148.383 241.211C151.278 237.758 151.608 237.25 152.014 235.727C152.496 233.848 154.045 231.689 156.686 229.15C158.92 227.018 161.992 223.361 161.992 222.854C161.992 222.676 162.399 221.711 162.881 220.695C163.719 218.943 163.744 218.791 163.389 218.105C163.186 217.699 163.008 216.937 163.008 216.43C163.008 215.896 162.83 214.906 162.602 214.195C162.196 212.9 162.221 212.875 163.135 209.854C164.506 205.334 165.217 204.166 167.553 202.516C168.619 201.754 170.346 200.307 171.387 199.266C173.824 196.879 175.297 195.939 177.887 195.076L179.969 194.416L181.543 195.076C182.407 195.457 183.219 195.762 183.346 195.762C183.473 195.762 183.803 195.406 184.057 194.975C184.438 194.365 184.489 194.01 184.311 193.527C184.184 193.172 184.108 192.842 184.184 192.791C184.235 192.715 185.098 192.41 186.088 192.105C187.866 191.547 187.891 191.521 187.383 191.064C186.698 190.43 186.951 190.176 188.323 190.176C189.135 190.176 189.592 190.303 189.821 190.607C190.125 191.039 190.252 190.963 191.42 189.795L192.715 188.551V189.465V190.379L196.854 190.531C199.114 190.633 201.703 190.734 202.617 190.76L204.268 190.811L204.522 189.262C204.852 187.281 205.436 186.596 207.442 185.885C209.651 185.098 210.742 183.904 210.742 182.279C210.742 181.314 210.869 181.01 211.606 180.299C212.164 179.766 212.52 179.131 212.621 178.496C212.748 177.684 213.053 177.303 214.78 175.932C216.582 174.459 216.836 174.18 217.217 172.859C217.573 171.717 217.826 171.336 218.512 170.98C219.223 170.6 219.528 170.117 220.366 168.086C221.076 166.41 221.407 165.166 221.483 164.023C221.686 161.078 222.371 159.225 223.717 157.904L224.91 156.736L225.317 153.334C225.545 151.277 226.028 148.865 226.51 147.266C227.246 144.854 227.348 144.168 227.5 139.902C227.653 135.916 227.805 134.672 228.491 131.65C228.948 129.695 229.582 127.461 229.887 126.699L230.446 125.303L231.867 125.176L233.315 125.049L234.914 122.891C236.59 120.682 238.621 117.406 239.764 115.121C240.145 114.385 240.983 113.344 241.795 112.658C242.582 111.998 243.623 110.906 244.106 110.221C244.893 109.18 245.248 108.926 246.315 108.646C247.432 108.342 247.787 108.062 249.539 106.082C254.719 100.141 255.455 99.1504 257.004 96.1035C259.975 90.2637 260.407 88.4101 259.366 85.8457C259.01 84.9316 258.731 83.7129 258.731 83.1289C258.731 81.1738 258.172 78.1015 257.664 77.2129C257.41 76.7305 257.106 75.6133 257.03 74.6992C256.877 73.0996 256.826 72.998 255.379 71.5508L253.907 70.0781H251.19C245.071 70.0527 240.297 67.7168 236.971 63.0449C236.006 61.6738 235.524 61.2676 234 60.5312C232.832 59.9219 231.588 59.0078 230.42 57.8652C228.77 56.2656 228.465 56.0625 226.028 55.2246C223.438 54.3359 223.26 54.3105 217.903 54.082C214.602 53.9551 211.783 53.7012 210.869 53.4726C210.032 53.2695 208.737 53.0918 208 53.0664C206.985 53.0664 206.223 52.8379 204.852 52.1523C203.862 51.6445 202.287 51.0859 201.348 50.8828C200.383 50.7051 199.469 50.4765 199.266 50.4004C199.063 50.3242 198.682 50.5781 198.352 51.0351C197.869 51.6699 197.616 51.7969 196.676 51.7969C195.66 51.7969 195.483 51.8984 194.619 52.9648L193.655 54.1328L193.324 53.5488C193.02 52.9902 193.096 52.8633 194.01 51.9238C194.543 51.3398 195 50.7051 195 50.5019C195 50.2988 194.492 49.7402 193.883 49.2832C192.944 48.5723 192.715 48.2422 192.537 47.2519C192.36 46.2617 192.182 46.0078 191.446 45.6523C190.862 45.3476 190.227 45.2461 189.617 45.3223C188.805 45.4238 188.424 45.2969 187.028 44.332C186.139 43.7226 184.971 43.0879 184.412 42.9101C183.879 42.7324 182.076 41.9707 180.401 41.1836L177.354 39.7617L173.977 39.6601L170.6 39.5586L169.838 40.2695C169.407 40.6758 168.543 41.793 167.883 42.7578C166.614 44.6113 165.395 45.4492 164.024 45.4492H163.262L165.166 42.8086C167.528 39.584 167.782 38.8222 166.994 37.6543C166.334 36.664 165.496 36.334 163.262 36.1308C161.332 35.9785 159.022 34.7851 158.895 33.9219C158.819 33.4648 158.616 33.3887 157.371 33.3125C156.026 33.2363 155.924 33.1855 155.543 32.3984C154.985 31.2051 155.035 30.7226 155.721 30.7226C156.787 30.7226 156.94 30.4433 156.66 28.9199C156.483 27.9551 156.483 27.0918 156.66 26.1523C156.914 24.7812 156.914 24.7305 156.229 24.1972C155.823 23.8672 155.162 23.6133 154.731 23.6133C153.994 23.6133 153.918 23.5371 153.791 22.6484C153.69 22.1152 153.461 21.4805 153.258 21.2012C152.928 20.7441 152.877 20.7441 152.217 21.1758C151.836 21.4297 151.481 21.582 151.43 21.5058C151.354 21.4551 151.201 20.6933 151.049 19.8301C150.897 18.8906 150.491 17.7734 150.059 17.0371C149.475 16.0976 149.297 15.5137 149.297 14.4472C149.272 10.8164 147.824 7.87108 146.073 7.87108C145.387 7.87108 144.93 8.12498 143.914 9.06444C142.315 10.5879 139.573 15.8437 139.268 17.9765C139.116 19.0937 138.912 19.4746 138.074 20.2617L137.084 21.2012L134.266 20.9726C132.26 20.7949 131.067 20.8203 130.026 21.0234C129.213 21.2012 127.918 21.3281 127.106 21.3281C125.811 21.3281 125.481 21.2265 124.389 20.4394L123.17 19.5254L121.469 19.8301C120.53 19.9824 119.082 20.0586 118.244 19.957C117.026 19.8301 116.619 19.8808 116.239 20.2363C115.68 20.7441 115.655 21.8613 116.188 22.9023C116.772 24.0195 116.391 24.1719 113.09 24.0449C110.805 23.9941 110.119 23.8672 109.383 23.4355L108.469 22.9023L106.996 24.1211C105.778 25.1113 104.787 25.5937 101.944 26.6347C97.7034 28.1836 96.8909 28.2344 95.1136 27.0918C94.4026 26.6094 93.4632 26.0254 93.0061 25.7715C92.1175 25.2637 91.9143 24.7812 91.9143 23.1055C91.9143 22.4707 91.7366 21.3281 91.5335 20.5664C91.3304 19.8047 91.178 18.5859 91.2034 17.875C91.2288 16.8847 91.1018 16.3769 90.6956 15.793L90.137 15.0312L91.4065 13.9648C92.6253 12.9238 92.6761 12.873 92.6761 11.5527C92.6761 10.2832 92.6253 10.1562 91.6858 9.4199C90.9241 8.81053 90.4417 8.63279 89.6292 8.63279C88.7913 8.63279 88.3597 8.45506 87.6741 7.87108C86.6077 6.93162 85.262 6.88084 82.6468 7.71873Z" fill="url(#paint0_linear_1787_7107)"/>
</g>
<defs>
<linearGradient id="paint0_linear_1787_7107" x1="129.917" y1="7.12622" x2="129.917" y2="252.637" gradientUnits="userSpaceOnUse">
<stop stop-color="#D65F00"/>
<stop offset="1" stop-color="#703200"/>
</linearGradient>
<clipPath id="clip0_1787_7107">
<rect width="260" height="260" fill="white"/>
</clipPath>
</defs>
</svg>
