<svg width="260" height="260" viewBox="0 0 260 260" fill="none" xmlns="http://www.w3.org/2000/svg">
<g clip-path="url(#clip0_1787_6351)">
<path d="M134.697 54.9704C130.355 55.3005 121.24 56.5447 117.965 57.281C115.756 57.7634 115.223 58.0427 112.684 60.074C110.5 61.8513 110.221 61.9275 107.859 61.3181C107.301 61.1658 106.996 61.3181 106.082 62.156C105.498 62.6892 104.66 63.324 104.229 63.5525C103.822 63.7556 101.994 65.5329 100.166 67.488L96.8652 71.0173L93.5644 71.1697C91.7617 71.2712 89.8066 71.4236 89.2226 71.4997C88.207 71.6521 88.1816 71.6267 86.9375 70.1033C85.5918 68.4275 84.7285 68.0974 84.4492 69.1384C84.2969 69.824 83.332 70.3318 82.1894 70.3318C81.7324 70.3318 81.1992 70.4587 80.9961 70.5857C80.7168 70.7634 81.0723 70.8396 82.1387 70.8396H83.6621L85.1348 73.1247C85.9219 74.3689 86.582 75.6638 86.582 76.0193C86.582 76.8572 86.8105 76.8572 87.9785 75.9177C88.9941 75.1052 89.8828 74.9275 89.8828 75.5115C89.8828 75.7654 89.5527 75.9177 88.9434 75.9685C88.2832 76.0193 87.9785 76.1716 87.9785 76.4255C87.9785 76.6286 87.4707 77.0603 86.8359 77.3904C85.4648 78.1013 83.0273 80.4372 83.0273 81.0212C83.0273 81.3513 82.7227 81.5036 81.7578 81.6306C80.8945 81.7575 80.3867 81.9607 80.2344 82.2908C79.9805 82.7224 80.0566 82.7732 81.1738 82.697C82.3164 82.6462 82.3926 82.697 82.8242 83.5349C83.0527 84.0173 83.2559 84.4997 83.2812 84.6013C83.2812 85.0075 82.1894 84.779 81.5801 84.2966C81.2246 84.0173 80.7676 83.7888 80.5644 83.7888C79.9551 83.7888 78.3555 84.7283 77.5684 85.5661C76.7051 86.5056 75.0801 87.5974 74.5723 87.5974C73.9375 87.5974 73.3789 88.5115 73.3789 89.4763C73.3789 90.6951 73.709 91.3044 74.6484 91.7869C75.2832 92.1169 76.1719 93.3103 76.1719 93.8181C76.1719 93.9197 75.7402 93.6404 75.2324 93.2087C74.2422 92.3962 73.125 92.1931 72.6934 92.7263C72.541 92.904 72.3633 94.1228 72.3125 95.4177C72.1602 98.1345 72.084 98.2361 69.8496 99.531C68.5039 100.318 68.2754 100.547 68.0723 101.435L67.8437 102.451L67.8184 101.613C67.793 100.648 68.4785 99.5056 69.748 98.4138C70.4336 97.8298 70.5859 97.5251 70.5352 96.9158C70.4844 96.3318 70.3066 96.0779 69.8242 95.9509C69.4434 95.8494 69.3672 95.7732 69.6211 95.7478C70.2305 95.7224 70.6621 94.8337 70.8652 93.1072C70.9668 92.2947 71.2207 91.4314 71.4492 91.1775C71.8809 90.7204 71.9824 89.7048 71.6523 89.2224C71.1445 88.4607 69.418 88.1052 68.8848 88.6384C68.3008 89.2224 67.4375 88.74 66.4473 87.2673C65.8887 86.4548 65.2539 85.82 65 85.82C64.7715 85.82 63.9336 86.5056 63.1719 87.3435C61.5977 89.07 61.0644 89.2986 61.4961 88.1052C61.6992 87.4451 61.6738 87.2419 61.3184 86.8357C60.8613 86.3279 60.8613 86.3279 61.6738 86.6072C62.4355 86.8865 62.5625 86.8357 63.3496 86.074C64.1113 85.3376 64.3144 85.2615 65.1523 85.4138C65.7617 85.5408 66.4473 85.947 67.1074 86.6325C68.0469 87.572 68.1992 87.6482 69.0371 87.4704C69.5449 87.3689 70.5352 87.2673 71.2461 87.2419C72.4648 87.2165 72.5664 87.1658 73.9375 85.6169C74.7246 84.7283 75.4102 83.7634 75.4609 83.4587C75.5117 83.0271 75.8418 82.824 76.959 82.5193C78.0508 82.2146 78.6602 81.8591 79.625 80.8689C81.6309 78.8884 82.2656 77.8982 82.2656 76.8572C82.2656 76.0447 82.1641 75.8923 81.5801 75.7654C81.1738 75.6638 80.666 75.3591 80.3867 75.1052C79.9297 74.6228 79.6504 74.6228 78.6094 75.029C78.2539 75.1814 78.1523 75.1306 78.2539 74.8767C78.4316 74.3689 80.1074 74.2927 80.793 74.7497C81.707 75.4099 82.0117 75.2575 82.0117 74.1658C82.0117 73.6072 81.9102 73.074 81.7578 72.9978C81.6309 72.9216 81.5039 72.6423 81.5039 72.3884C81.5039 72.0329 81.3516 71.9568 80.8945 72.0329C79.9297 72.2361 79.7519 71.2204 80.5898 70.3572C81.8594 69.0368 81.5039 68.2243 78 64.3396C75.8926 62.0036 75.5879 61.7751 74.3945 61.4958C72.6172 61.0896 71.6269 61.115 68.6816 61.6736C65.3301 62.3083 63.9336 62.8669 60.4297 64.949C56.4687 67.2595 53.0664 69.8493 52.3301 71.0681L51.6953 72.0583L49.0293 72.2107C47.1758 72.3376 45.9316 72.5408 45.0684 72.8962C44.3828 73.2009 43.0625 73.5818 42.1484 73.7595C39.7617 74.2165 38.3652 75.0544 37.6797 76.4509C37.375 77.0603 36.5879 79.3962 35.9531 81.6306C35.0645 84.6267 34.582 85.8708 34.0742 86.404C33.3887 87.1404 32.1191 87.5974 30.8242 87.5974C30.3926 87.5974 29.9102 87.7497 29.7832 87.9021C29.1992 88.6892 28.6914 91.5076 28.6914 93.9958C28.6914 96.2302 28.5898 96.9411 27.9043 98.947C27.2695 100.877 26.9902 101.359 26.2793 101.842C25.1621 102.603 25.0605 103.136 25.7715 104.177C26.0762 104.66 26.4316 105.345 26.584 105.752L26.8125 106.463L27.5234 105.777C27.9297 105.422 28.5137 105.117 28.8437 105.117C29.2754 105.117 29.5801 104.863 29.9102 104.203C30.2656 103.492 30.4434 103.34 30.6211 103.619C30.7227 103.822 30.8242 104.203 30.8496 104.482C30.8496 104.863 31.0527 105.015 31.6621 105.066C32.1699 105.117 32.6016 105.345 32.7539 105.65C33.1094 106.31 33.3379 106.26 34.252 105.371C34.8359 104.761 35.0645 104.685 35.2168 104.965C35.3184 105.142 35.8516 105.777 36.3594 106.361C37.1973 107.25 37.4004 107.351 37.9336 107.148C38.7207 106.869 39.1016 105.726 39.1523 103.517C39.2031 102.476 39.3047 101.842 39.4824 101.892C39.6094 101.943 39.7109 102.273 39.6855 102.603C39.584 103.746 39.8887 104.838 40.498 105.599C40.8789 106.031 41.082 106.513 40.9805 106.742C40.7773 107.25 40.3711 107.021 40.3711 106.361C40.3711 105.802 40.1426 105.752 39.5078 106.209C39.0254 106.564 38.9238 107.326 39.2031 108.545C39.3555 109.23 39.3301 109.256 39.0762 108.722C38.7207 108.062 38.3398 107.986 38.3145 108.595C38.3145 109.002 38.2637 108.976 38.0605 108.545C37.8828 108.215 37.3242 107.91 36.4863 107.681C33.8203 106.996 33.668 106.996 32.8047 108.062C32.0684 108.951 32.043 109.027 32.4238 109.586C32.6523 109.941 33.0586 110.195 33.4141 110.195C33.8203 110.195 33.9727 110.297 33.8711 110.576C33.7949 110.779 33.9473 111.338 34.252 111.795C34.6328 112.404 34.7852 113.09 34.7852 114.029C34.7852 116.238 34.4043 116.213 34.0742 113.978C33.668 111.414 33.6172 111.312 32.7539 110.957C31.9414 110.627 31.4844 110.779 31.4844 111.414C31.4844 111.642 31.1289 111.998 30.6973 112.201C29.7832 112.607 29.4277 112.404 30.1895 111.922C30.4941 111.744 30.7227 111.338 30.7227 111.033C30.7227 110.728 30.8496 110.398 30.9766 110.322C31.332 110.093 31.3066 109.433 30.9258 109.433C30.748 109.433 30.3164 109.154 29.9609 108.799L29.3008 108.164L28.3613 108.824C27.8535 109.154 27.4219 109.611 27.4219 109.814C27.4219 110.043 27.168 110.195 26.8125 110.195C26.4824 110.195 26.1523 110.373 26.0508 110.576C25.9492 110.855 25.543 110.957 24.6543 110.957C22.166 110.957 22.0645 110.5 23.7656 107.123C24.4004 105.828 24.8828 104.558 24.832 104.203C24.7812 103.746 24.2988 104.457 22.877 107.047C21.4551 109.586 20.8203 110.5 20.3887 110.601C19.4238 110.855 19.0684 111.566 19.3984 112.607C19.6777 113.521 19.9062 113.699 20.1855 113.242C20.3125 113.039 21.5059 113.14 21.7852 113.394C21.8359 113.42 21.6328 113.699 21.3535 113.978C20.7949 114.537 20.668 115.4 21.0488 116.01C21.2012 116.238 21.3281 116.263 21.4297 116.06C21.5312 115.908 21.7344 115.781 21.8613 115.781C22.0137 115.781 21.8105 116.06 21.4297 116.365L20.7187 116.974L21.3027 117.761C21.6328 118.218 22.0898 118.574 22.3945 118.574C22.7754 118.574 22.8516 118.676 22.6992 119.006C22.4961 119.488 22.4961 120.097 22.6484 120.986C22.6992 121.316 22.5723 121.494 22.3437 121.494C22.0645 121.494 21.9375 121.164 21.8867 120.301C21.8359 119.412 21.6836 119.082 21.3535 118.955C21.0742 118.879 20.8203 118.574 20.7441 118.32C20.6426 117.914 20.3887 117.812 19.4492 117.812C18.7637 117.812 18.2812 117.685 18.2812 117.533C18.2812 117.381 18.0527 117.304 17.7734 117.381C17.4941 117.457 17.2148 117.431 17.1641 117.33C17.0371 117.127 17.5957 115.324 18.0781 114.41C18.6367 113.293 17.7734 114.461 16.123 117.025C15.209 118.472 14.498 119.793 14.5742 119.996C14.6504 120.224 14.3965 120.377 13.7617 120.478C13.2539 120.58 12.6953 120.681 12.5684 120.732C12.416 120.758 12.0859 122.154 11.832 123.804L11.375 126.826L9.26758 130.254C6.11914 135.408 4.57031 139.445 1.625 150.16L-0.0507812 156.254L0.507812 156.66C0.8125 156.888 2.66602 158.056 4.64648 159.25C9.24219 162.017 12.7207 163.185 13 162.043C13.2793 160.976 12.6191 159.935 9.80078 156.99L6.90625 153.968L8.04883 152.369L9.19141 150.795L7.61719 149.347C6.72852 148.56 5.86523 147.799 5.6875 147.697C5.4082 147.545 5.45898 147.24 5.99219 146.199L6.65234 144.929L7.43945 145.666C7.89648 146.072 9.49609 147.545 11.0195 148.89L13.7871 151.353L15.6152 149.551L17.4434 147.722L18.002 148.51L18.5605 149.297L16.7578 151.328L14.9805 153.385L15.9199 154.502C16.4277 155.136 16.9355 155.644 16.9863 155.644C17.0625 155.644 18.002 154.781 19.0684 153.715C20.8711 151.937 21.0488 151.81 21.5566 152.115C21.8359 152.318 22.0898 152.648 22.0898 152.851C22.0898 153.054 20.9219 154.4 19.5 155.822L16.9355 158.412L17.5957 159.427C18.3066 160.468 18.6367 160.672 18.916 160.215C18.9922 160.062 19.2461 159.961 19.4746 159.961C19.8047 159.961 19.7793 160.088 19.2969 160.595C18.5098 161.459 18.8145 161.687 19.8047 160.976C20.4648 160.494 20.668 160.468 20.8457 160.748C21.1504 161.256 21.125 161.56 20.668 162.195C20.2871 162.754 20.3379 162.83 22.4961 165.191L24.7051 167.603L25.9238 166.41L27.1172 165.242L27.5488 165.877C27.9551 166.511 27.9551 166.588 27.3965 167.578C27.0156 168.263 26.9141 168.695 27.0664 168.847C27.3711 169.152 33.668 163.871 33.6172 163.388C33.5918 163.211 32.9316 162.22 32.1445 161.179C30.748 159.326 30.7227 159.25 30.7227 157.599V155.898H31.9922H33.2617V157.345C33.2617 158.767 33.3379 158.894 34.7852 160.722C35.623 161.763 36.3848 162.652 36.4863 162.677C36.6133 162.703 37.2734 162.424 37.959 162.043L39.2285 161.357L39.2539 158.361C39.2793 155.543 39.5332 154.4 39.9902 155.136C40.0918 155.289 40.2441 156.609 40.2949 158.031L40.4473 160.646L42.4277 160.799C43.875 160.926 44.7129 160.849 45.5508 160.57L46.7187 160.164V158.463C46.7187 156.482 46.9727 156.101 48.6484 155.67C49.8418 155.365 50.5273 155.517 50.5273 156.076C50.5273 156.279 51.0352 157.041 51.6699 157.752C52.3047 158.488 52.8125 159.326 52.8125 159.631C52.8125 160.189 52.9141 160.215 54.5898 160.215H56.3672L56.875 159.199C57.1543 158.666 57.3828 157.929 57.3828 157.599C57.3828 157.142 57.7129 156.812 59.0078 156.101L60.6074 155.213L62.2324 156.355C63.1211 156.965 64.3906 157.98 65.0508 158.59C66.168 159.631 69.0371 161.611 69.1641 161.433C69.8242 160.57 70.0781 159.961 70.0781 159.275V158.437H68.5547C66.7012 158.437 66.625 158.183 68.0469 156.787C69.1133 155.746 69.3672 154.781 68.7578 154.146C68.4785 153.892 68.5039 153.867 68.834 153.994C69.1133 154.095 69.4434 153.892 69.8242 153.385C70.332 152.648 71.0937 152.318 71.0937 152.826C71.0937 152.953 70.7891 153.41 70.4336 153.842L69.7734 154.629L70.2051 156.025C70.5859 157.371 70.6367 157.422 71.4746 157.422C72.1855 157.422 72.3633 157.523 72.3633 157.929C72.3633 158.26 72.1094 158.539 71.7285 158.691C71.1699 158.894 71.1445 158.996 71.373 159.681C71.5254 160.088 71.8555 160.621 72.1094 160.849C72.668 161.357 74.9531 161.992 76.2988 161.992C77.0352 161.992 77.416 162.119 77.6445 162.5C78.2285 163.439 80.0566 163.033 80.3359 161.89C80.4883 161.306 80.5644 161.281 81.2246 161.51C81.9102 161.738 81.9609 161.84 81.707 162.373C80.9453 164.023 82.4434 165.242 85.4902 165.445C87.1914 165.572 87.5976 165.521 88.2578 165.09C88.6894 164.81 89.1973 164.226 89.4004 163.82C89.7305 163.058 89.7559 163.058 91.6855 163.084C93.6152 163.135 93.6152 163.135 93.2598 163.693C93.0312 164.049 92.9551 164.48 93.0566 164.836C93.3105 165.623 95.4941 168.593 95.8242 168.593C95.9766 168.593 96.7891 169.254 97.6269 170.092C98.6426 171.082 99.6328 171.767 100.598 172.123C101.842 172.631 102.096 172.834 102.451 173.748C103.035 175.271 104.355 176.49 106.387 177.48C107.732 178.14 108.164 178.47 108.164 178.851C108.164 180.527 111.465 181.974 114.664 181.72C116.695 181.543 116.797 181.619 116.797 183.168C116.797 184.082 117.66 185.097 118.447 185.097C118.701 185.097 119.818 186.037 120.936 187.179C122.789 189.109 122.992 189.236 123.094 188.677C123.145 188.347 122.764 186.875 122.256 185.427C121.748 183.955 121.367 182.736 121.418 182.66C121.494 182.609 122.332 183.523 123.297 184.717C124.82 186.595 125.15 186.875 125.861 186.875C126.42 186.875 126.979 186.621 127.537 186.113C128.324 185.427 128.604 185.351 130.076 185.351C131.854 185.351 132.006 185.453 132.26 186.722C132.437 187.56 132.641 187.687 135.281 188.754C137.186 189.541 137.516 189.439 139.445 187.713C140.182 187.027 141.172 186.215 141.629 185.91C142.061 185.58 142.441 185.148 142.441 184.92C142.441 184.64 142.568 184.59 142.898 184.742C143.127 184.869 144.27 184.996 145.437 185.047C147.037 185.123 147.52 185.224 147.52 185.504C147.52 185.783 147.037 185.859 145.209 185.859C143.482 185.859 142.924 185.935 143 186.164C143.127 186.494 143.787 186.672 146.402 187.078C147.875 187.306 149.043 187.967 149.043 188.551C149.043 188.982 150.16 190.176 150.566 190.176C150.744 190.176 150.795 189.845 150.668 189.261C150.389 187.814 151.049 188.271 152.268 190.429C153.029 191.775 153.385 192.207 153.486 191.902C153.588 191.674 153.537 191.242 153.385 190.963C153.131 190.506 153.207 190.404 153.867 190.049C154.273 189.845 154.629 189.566 154.629 189.465C154.604 189.363 154.4 188.297 154.146 187.078C153.613 184.488 153.715 184.183 155.264 183.955C156.254 183.802 156.305 183.828 156.863 184.843C157.523 185.986 159.479 187.383 160.494 187.383C160.977 187.383 161.738 186.748 163.668 184.767C165.09 183.345 166.562 181.67 166.994 181.035C167.426 180.4 168.01 179.664 168.314 179.41C168.619 179.131 169.127 178.47 169.406 177.937C169.812 177.252 170.117 176.972 170.549 176.972C171.158 176.972 172.479 176.414 173.164 175.83C173.367 175.677 174.18 175.322 174.941 175.093C175.703 174.84 176.744 174.332 177.227 173.951C177.709 173.57 179.156 172.834 180.426 172.301L182.736 171.336L185.326 171.717C187.891 172.097 187.916 172.097 189.744 171.488C190.76 171.133 193.121 170.498 194.975 170.092C197.844 169.431 198.631 169.152 199.875 168.289C202.77 166.334 207.264 165.14 213.027 164.785C216.176 164.582 216.582 164.506 217.877 163.795C219.146 163.109 219.654 162.982 221.812 162.855C223.463 162.779 225.621 162.398 228.109 161.789C231.867 160.849 231.918 160.849 233.035 159.631C233.67 158.97 234.762 158.107 235.473 157.701C236.184 157.269 237.859 156.051 239.18 154.933C241.922 152.648 242.937 152.064 243.699 152.267C244.004 152.343 245.02 152.267 245.959 152.09C248.168 151.709 249.818 150.49 252.002 147.595C253.449 145.691 253.652 145.234 254.643 141.883C255.252 139.902 256.217 136.881 256.826 135.205C257.613 132.996 257.994 131.422 258.223 129.492C258.4 127.943 258.857 125.886 259.289 124.566C259.975 122.611 260.051 122.078 259.949 120.25C259.848 118.269 259.797 118.092 258.807 116.797L257.766 115.426L258.197 114.537C258.959 113.039 259.289 111.769 259.137 111.008C258.984 110.424 258.654 110.195 256.496 109.332C254.008 108.316 252.611 108.113 251.012 108.545C250.174 108.773 249.971 108.545 249.564 106.97C249.336 106.082 249.158 105.879 248.523 105.752C247.355 105.498 244.588 106.107 243.75 106.793C243.369 107.123 242.912 107.402 242.734 107.402C242.506 107.402 242.506 107.504 242.658 107.707C243.115 108.291 243.268 109.662 242.887 109.865C242.709 109.967 242.506 110.322 242.43 110.627C242.303 111.058 242.379 111.211 242.709 111.211C243.699 111.211 244.156 112.556 243.242 112.81C242.937 112.886 242.734 112.81 242.734 112.607C242.734 112.15 242.074 111.947 241.262 112.125C240.881 112.226 239.662 112.734 238.52 113.242C236.209 114.308 234.812 114.664 232.096 114.918C231.055 114.994 229.76 115.299 229.176 115.552C227.627 116.263 226.637 116.187 226.002 115.324C225.418 114.511 224.402 114.131 221.33 113.648C220.187 113.445 218.689 113.039 218.055 112.734C216.836 112.176 214.246 109.636 213.383 108.189C213.078 107.656 212.672 107.402 212.037 107.275C211.529 107.174 210.844 106.945 210.514 106.717C210.057 106.412 209.396 106.361 207.67 106.437C205.613 106.539 205.359 106.615 204.648 107.275C204.242 107.681 203.811 108.24 203.734 108.519C203.658 108.824 203.303 109.459 202.947 109.967C202.211 111.084 200.687 111.592 199.291 111.211C197.285 110.627 196.117 111.16 194.695 113.343L193.984 114.385L194.898 115.299C195.889 116.314 195.863 116.67 194.797 117.076C194.086 117.355 193.73 117.051 193.73 116.136C193.73 115.578 192.842 115.019 191.953 115.019C191.699 115.019 191.293 115.273 191.09 115.578C190.811 115.959 190.684 116.01 190.684 115.781C190.709 115.222 191.166 114.74 192.613 113.775C193.477 113.191 194.111 112.531 194.467 111.82C195.178 110.347 195.812 109.992 198.326 109.662C200.687 109.357 201.424 108.824 201.754 107.25C201.855 106.64 202.211 106.234 203.125 105.65C203.811 105.193 204.445 104.584 204.547 104.279C204.648 103.974 204.902 103.441 205.131 103.111C205.359 102.756 205.664 101.842 205.816 101.08C206.096 99.7087 206.096 99.6072 205.334 98.2615C204.902 97.4997 203.836 96.0271 202.922 95.0115C200.916 92.7263 200.713 91.9138 201.703 89.7556C202.059 88.9431 202.363 87.9783 202.363 87.572C202.363 86.8865 202.287 86.8357 201.373 86.8357C200.84 86.8357 199.723 86.7595 198.885 86.6833L197.336 86.5056L196.447 87.9275C195.939 88.7146 195.178 89.5271 194.771 89.7556C193.654 90.3142 192.969 91.8122 192.969 93.7165V95.2654L190.506 95.0876L188.018 94.9099L187.154 95.824C186.596 96.3826 185.936 96.7888 185.377 96.8904C184.869 96.9919 184.209 97.2966 183.904 97.5759C183.396 98.0329 183.32 98.3376 183.32 100.039C183.32 102.197 183.092 102.578 181.289 103.467C180.807 103.695 180.02 104.304 179.562 104.812L178.725 105.752L179.105 104.761C179.334 104.228 179.512 103.746 179.512 103.72C179.512 103.67 180.02 103.416 180.604 103.136C182.203 102.375 182.584 101.664 182.508 99.5818C182.457 98.2615 182.533 97.6775 182.889 97.1697C183.498 96.2556 187.941 94.0212 189.643 93.7927C191.268 93.5896 191.598 93.2087 191.09 92.2185C190.531 91.1521 189.008 89.9587 187.51 89.4001C185.529 88.6638 181.467 88.2322 179.664 88.5876C178.826 88.74 178.09 88.7908 178.014 88.6892C177.937 88.5622 177.328 87.6736 176.693 86.6833C175.297 84.5759 173.672 83.154 172.377 82.9001C171.361 82.7224 167.857 83.154 166.893 83.6111C166.486 83.7888 166.182 84.2966 165.852 85.4138C165.572 86.2771 164.887 87.699 164.303 88.5876C163.465 89.9079 162.83 90.5173 161.053 91.6853C159.834 92.4978 158.539 93.2341 158.158 93.3103C157.701 93.4119 157.371 93.7165 157.193 94.199C157.066 94.6052 156.482 95.24 155.924 95.6208C154.984 96.2302 154.756 96.281 153.436 96.1286C152.623 96.0271 151.633 95.9255 151.201 95.9001L150.439 95.8494L150.312 97.8298C150.186 99.6579 149.754 100.521 149.602 99.2263C149.424 97.7283 149.297 97.449 148.916 97.7536C148.586 98.0329 148.535 97.9314 148.535 97.1697C148.535 96.4841 148.789 96.0017 149.678 95.0115C151.277 93.2341 151.252 93.1579 148.738 92.8025C148.078 92.7263 147.291 92.4216 146.961 92.1423L146.377 91.6345L147.52 91.7361C149.348 91.9138 151.303 92.5486 152.039 93.2595C152.928 94.072 154.248 94.7322 154.68 94.5798C154.857 94.5036 155.264 93.9958 155.594 93.4372C155.898 92.8786 156.279 92.4216 156.432 92.4216C156.584 92.4216 157.523 92.0408 158.539 91.5837C160.875 90.4919 161.84 89.197 162.094 86.7849C162.322 84.449 164.455 80.1072 165.852 79.1423C167.096 78.279 167.857 76.7302 167.578 75.5876C167.324 74.4197 164.582 70.8396 163.947 70.8396C163.033 70.8396 158.691 74.7243 158.691 75.5622C158.691 76.4001 158.437 76.9333 158.031 76.9333C157.6 76.9333 157.574 76.5779 157.955 75.8669C158.285 75.2829 157.93 74.9021 157.016 74.9021C155.898 74.9021 155.67 75.3845 155.873 77.365C156.051 79.1677 156.025 79.1931 155.264 79.8025C154.832 80.1325 154.223 80.5134 153.893 80.615C153.334 80.7927 153.334 80.7419 154.146 79.574C154.959 78.3806 155.01 78.2283 154.934 76.4001C154.857 74.5466 154.883 74.445 155.543 74.0134C156.152 73.6072 156.254 73.6072 156.457 73.9626C156.66 74.3181 156.863 74.2927 158.26 73.7087C160.113 72.8962 161.002 72.2361 162.195 70.6872C162.932 69.697 163.033 69.3923 162.881 68.656C162.805 68.1736 162.398 67.4118 162.018 66.9802L161.307 66.1931L160.088 66.5993C159.402 66.8533 158.311 67.031 157.65 67.031H156.457L156.584 67.9958C156.762 69.3161 156.254 69.7478 154.934 69.3669C154.426 69.2146 153.41 69.1638 152.699 69.24C151.734 69.3415 151.227 69.2654 150.744 68.9353C150.16 68.5544 150.033 68.5544 149.322 68.9099C148.307 69.4431 147.418 69.4431 147.621 68.9099C147.697 68.6814 147.773 68.4529 147.773 68.3767C147.773 68.3005 147.951 68.3767 148.154 68.5544C148.484 68.8337 148.662 68.7829 149.17 68.3005C149.779 67.7419 149.855 67.7165 151.557 68.0212C152.521 68.199 153.816 68.2751 154.426 68.1736C155.518 68.0212 155.518 67.9958 155.518 67.0056C155.518 65.4568 156.025 65.1267 158.387 65.2283C159.961 65.279 160.443 65.2029 160.697 64.8982C161.002 64.5427 160.951 64.3396 160.393 63.5017C159.275 61.8259 157.65 60.7087 155.213 59.947C153.994 59.5661 152.725 59.1091 152.42 58.9568C151.963 58.7029 151.709 58.7536 150.922 59.2107C150.236 59.6169 150.008 59.6677 150.109 59.4138C150.186 59.2107 150.338 58.8298 150.439 58.6013C150.693 57.9919 149.729 57.4841 147.57 57.1033C146.199 56.8747 145.59 56.8747 145.107 57.0779C144.574 57.3318 144.346 57.2556 143.279 56.3923C142.162 55.529 139.953 54.5388 139.293 54.615C139.141 54.6404 137.084 54.7927 134.697 54.9704Z" fill="url(#paint0_linear_1787_6351)"/>
<path d="M214.627 83.2811C214.322 83.4081 213.992 83.8144 213.891 84.1698C213.738 84.7538 213.637 84.8046 212.24 84.8046C210.92 84.8046 210.742 84.8554 210.742 85.3124C210.742 85.5917 211.25 86.6327 211.885 87.6229C212.951 89.2733 213.18 89.4765 214.881 90.2382C215.896 90.6952 217.141 91.2284 217.674 91.4061C218.232 91.5839 219.426 92.244 220.34 92.8788C221.279 93.5136 222.727 94.2499 223.564 94.5038C225.545 95.1386 226.002 95.4433 226.611 96.6366C226.891 97.1952 227.246 97.703 227.373 97.8046C227.83 98.1601 228.262 98.0077 228.262 97.5507C228.262 96.8651 228.896 96.078 229.15 96.4589C229.252 96.6366 229.227 96.8905 229.074 97.0429C228.719 97.3983 230.318 100.318 231.08 100.725C231.41 100.877 231.816 101.308 231.994 101.664C232.4 102.426 232.35 102.4 234.152 102.045C239.738 100.928 241.211 100.445 241.211 99.6327C241.211 99.455 241.465 99.2265 241.795 99.1503C242.303 98.9726 242.887 98.5409 243.928 97.4491C244.309 97.0683 244.385 97.0683 245.096 97.5253C245.807 97.9315 246.238 97.9823 249.184 97.83C253.424 97.6522 254.109 97.1698 252.891 95.3417C252.535 94.8085 252.383 94.1483 252.383 93.1073C252.383 91.8124 252.281 91.5331 251.672 90.8983C251.012 90.2382 250.402 90.0097 248.295 89.5272C247.889 89.4511 247.279 89.578 246.695 89.8827C245.959 90.2382 245.781 90.2636 245.883 89.9843C246.035 89.5526 245.934 89.5526 244.715 89.9081C244.08 90.0604 243.75 90.3143 243.75 90.5936C243.75 91.0253 242.049 92.1679 241.414 92.1679C241.262 92.1679 241.541 91.7108 242.1 91.1522C242.633 90.5936 243.014 90.0858 242.938 89.9843C242.836 89.9081 239.992 89.7811 236.59 89.7304C233.188 89.6796 230.039 89.578 229.557 89.4765C228.947 89.3749 228.084 88.7909 226.637 87.4452C225.52 86.4042 224.453 85.5663 224.301 85.5663C224.148 85.5663 223.336 85.2616 222.523 84.9061C218.74 83.205 216.125 82.6718 214.627 83.2811Z" fill="url(#paint1_linear_1787_6351)"/>
<path d="M204.927 92.4727C204.927 92.9298 205.13 93.8184 205.384 94.4532C205.79 95.4434 205.968 95.6212 206.806 95.7735C207.339 95.9005 207.821 95.9512 207.872 95.9005C207.923 95.8243 207.821 95.2403 207.644 94.5801C207.39 93.6915 207.06 93.1583 206.273 92.5235C205.689 92.0411 205.155 91.6602 205.054 91.6602C204.978 91.6602 204.901 92.0411 204.927 92.4727Z" fill="url(#paint2_linear_1787_6351)"/>
<path d="M223.539 97.17C223.589 97.4239 223.716 98.0079 223.818 98.4649C223.945 99.1251 224.402 99.5821 225.925 100.75C229.353 103.289 229.531 103.34 229.531 101.613C229.531 100.191 229.023 99.5313 227.906 99.5313C227.144 99.5313 225.722 98.8712 225.722 98.5411C225.722 98.4141 225.392 97.9571 224.986 97.5255C224.173 96.6622 223.335 96.4591 223.539 97.17Z" fill="url(#paint3_linear_1787_6351)"/>
<path d="M47.8874 157.397C47.8112 157.524 47.9382 157.981 48.1667 158.438C48.4714 159.098 48.4968 159.377 48.2682 159.733C48.1159 159.987 47.9889 160.596 47.9889 161.078C47.9889 161.84 48.0905 161.992 49.0046 162.348C50.2487 162.83 51.8991 162.906 51.7468 162.424C51.6706 162.272 51.3659 162.069 51.0104 162.043C49.9694 161.891 49.8425 161.485 50.8581 161.485C51.7214 161.485 51.7975 161.434 51.7975 160.748C51.7975 159.453 51.3659 158.793 50.0456 157.955C48.7253 157.143 48.1159 156.99 47.8874 157.397Z" fill="url(#paint4_linear_1787_6351)"/>
<path d="M59.7441 157.498C58.8047 157.701 58.6523 157.828 58.6523 158.412C58.6523 159.453 59.541 160.723 60.3027 160.723C60.7344 160.723 60.9375 160.85 60.9375 161.18C60.9375 161.713 62.8672 162.754 63.8574 162.754C64.5176 162.754 65.5586 161.611 65.457 161.002C65.4063 160.799 64.9746 160.52 64.4922 160.393C63.2988 160.088 62.7148 159.529 62.7148 158.666C62.7148 158.133 62.5371 157.854 61.9531 157.549C61.1406 157.117 61.2168 157.117 59.7441 157.498Z" fill="url(#paint5_linear_1787_6351)"/>
<path d="M56.6965 165.674C56.5442 166.131 54.3352 167.324 53.7004 167.324C53.4465 167.324 53.9289 167.908 54.7922 168.721C55.884 169.711 56.3157 170.295 56.341 170.803C56.3664 171.209 56.3918 172.225 56.4426 173.088C56.4934 174.434 56.595 174.764 57.2297 175.424C57.6614 175.855 58.093 176.211 58.1946 176.211C58.3215 176.211 58.7024 175.602 59.0325 174.84C59.6418 173.494 59.6672 173.443 60.8606 173.291C64.4153 172.859 67.1828 172.326 67.3352 172.047C67.7668 171.412 67.4875 170.803 66.2942 169.635C64.8469 168.213 64.1106 168.01 61.5461 168.238C60.5305 168.34 59.3118 168.34 58.8039 168.238C58.0422 168.086 57.8899 167.959 57.8899 167.426C57.8899 167.07 58.0168 166.537 58.1692 166.258C58.3977 165.852 58.3723 165.674 58.1184 165.521C57.5598 165.166 56.8743 165.268 56.6965 165.674Z" fill="url(#paint6_linear_1787_6351)"/>
<path d="M42.4277 168.34C41.3359 169.203 41.1582 169.482 41.2852 169.965C41.3613 170.32 41.2598 170.904 41.0312 171.336C40.4219 172.529 40.498 173.596 41.2598 174.078C42.2246 174.687 42.7578 174.459 42.8594 173.367C42.9609 172.25 43.4688 171.767 44.459 171.844C45.1445 171.894 45.1953 171.844 45.1953 171.006C45.1953 169.812 45.5508 169.178 46.541 168.594C47.0742 168.264 47.2012 168.06 46.9473 167.984C46.7441 167.933 46.2109 167.756 45.7285 167.603C44.332 167.146 43.7734 167.273 42.4277 168.34Z" fill="url(#paint7_linear_1787_6351)"/>
<path d="M68.6306 168.137C67.8689 169.102 68.199 170.117 69.2908 170.117C70.3826 170.117 70.6619 169.609 70.0779 168.645C69.5447 167.781 69.0369 167.629 68.6306 168.137Z" fill="url(#paint8_linear_1787_6351)"/>
<path d="M68.9863 170.777C68.8848 170.879 68.8086 171.234 68.8086 171.564C68.8086 171.996 68.9609 172.148 69.3418 172.148C69.748 172.148 69.8496 172.021 69.7734 171.463C69.6973 170.803 69.3164 170.473 68.9863 170.777Z" fill="url(#paint9_linear_1787_6351)"/>
<path d="M50.8066 171.869C50.502 172.275 49.9434 172.681 49.5371 172.783C48.4961 173.011 48.293 173.341 48.1914 174.941L48.1152 176.338L46.4648 176.464C44.9922 176.566 44.8145 176.642 44.7383 177.15C44.6621 177.683 44.7383 177.734 45.9316 177.734C46.8965 177.734 47.2266 177.836 47.2266 178.089C47.2266 178.699 45.627 179.765 44.7383 179.765C44.2812 179.765 43.9258 179.867 43.9258 180.019C43.9258 180.349 45.4492 180.705 47.709 180.882C49.7402 181.06 50.2734 180.857 50.2734 179.892C50.2734 179.054 50.8574 178.699 51.8477 178.877C52.6855 179.029 54.3359 180.298 54.3359 180.781C54.3359 180.908 54.5645 181.136 54.8691 181.314C55.3008 181.543 55.5039 181.492 56.0117 181.009C56.3418 180.705 56.6211 180.172 56.6211 179.841C56.6211 179.511 56.8242 178.953 57.0527 178.572C57.4844 177.937 57.459 177.912 56.7988 177.328C56.418 176.998 55.6309 176.591 55.0723 176.414C53.9043 176.084 53.5742 175.525 53.5742 173.849C53.5742 172.732 53.0664 171.894 52.127 171.412C51.3906 171.031 51.3906 171.031 50.8066 171.869Z" fill="url(#paint10_linear_1787_6351)"/>
<path d="M68.4274 173.977C68.4274 174.789 68.3766 174.815 67.2848 174.891C66.1168 174.967 65.2535 175.5 65.2535 176.135C65.2535 176.313 65.0504 176.465 64.8219 176.465C64.568 176.465 64.2125 176.567 64.0094 176.694C63.7301 176.871 63.7555 177.049 64.2125 177.709C64.7203 178.395 64.9235 178.496 65.9899 178.496C67.1578 178.496 67.2086 178.522 67.1071 179.106C67.0055 179.537 67.1324 179.791 67.5133 179.994C67.9957 180.248 68.0465 180.223 68.0465 179.69C68.0465 179.36 68.275 178.877 68.5543 178.623C68.8336 178.369 69.0621 177.963 69.0621 177.735C69.0621 177.252 69.5446 176.973 70.3571 176.973C70.7633 176.973 70.8141 176.846 70.6871 176.262C70.5094 175.526 69.0875 173.393 68.6813 173.24C68.5289 173.19 68.4274 173.545 68.4274 173.977Z" fill="url(#paint11_linear_1787_6351)"/>
<path d="M62.3838 173.723C61.5967 174.155 61.3682 174.916 61.8252 175.602C62.3838 176.465 63.3487 176.414 63.6788 175.5C63.8057 175.119 64.0088 174.637 64.1104 174.408C64.3135 173.875 63.0186 173.342 62.3838 173.723Z" fill="url(#paint12_linear_1787_6351)"/>
<path d="M74.1908 176.008C74.0131 176.185 73.8861 176.516 73.8861 176.744C73.8861 176.998 73.7846 177.277 73.6322 177.353C73.1244 177.683 73.3783 178.699 74.1654 179.359C75.0541 180.121 75.3588 180.172 76.0443 179.664C76.7045 179.182 76.7045 177.557 76.0443 177.074C75.765 176.871 75.308 176.49 75.0033 176.211C74.5971 175.855 74.3939 175.805 74.1908 176.008Z" fill="url(#paint13_linear_1787_6351)"/>
<path d="M71.4242 177.963C70.9164 178.801 71.6019 180.756 72.4144 180.781C72.516 180.781 72.7445 180.604 72.973 180.4C73.3031 180.07 73.3031 179.893 72.9222 178.953C72.3382 177.43 71.932 177.15 71.4242 177.963Z" fill="url(#paint14_linear_1787_6351)"/>
<path d="M58.1445 178.75L57.6113 179.486L58.2207 180.832C58.6777 181.797 58.7793 182.305 58.6016 182.635C58.1953 183.447 58.5 183.853 59.9473 184.437C60.7344 184.768 61.9531 185.478 62.6133 186.037C63.2988 186.621 64.2129 187.256 64.6699 187.484C65.457 187.865 65.4824 187.865 66.0156 187.205C66.2949 186.85 66.5996 186.266 66.6758 185.936C66.7773 185.631 66.9297 185.352 67.082 185.352C67.3867 185.352 68.5547 184.184 68.5547 183.879C68.5547 183.752 67.9453 183.65 67.2344 183.65C65.4062 183.701 63.5273 182.762 62.8418 181.492C62.5625 180.959 62.0293 180.4 61.6484 180.248C61.0645 180.019 60.9375 179.791 60.9375 179.131C60.9375 178.217 60.6074 177.988 59.4141 177.988C58.9062 177.988 58.5254 178.217 58.1445 178.75Z" fill="url(#paint15_linear_1787_6351)"/>
<path d="M50.6543 184.082C50.4004 184.361 49.9941 184.641 49.7656 184.717C49.5117 184.793 49.2578 185.199 49.1562 185.631C49.0547 186.215 48.7754 186.494 47.9629 186.824L46.8965 187.281L47.8867 188.094C48.4961 188.602 49.0293 188.855 49.2578 188.754C49.4609 188.652 50.1973 188.475 50.8574 188.322C51.9492 188.094 52.127 188.119 52.6602 188.627L53.2695 189.186L53.4473 188.475C53.5234 188.094 54.0059 187.281 54.4883 186.697L55.377 185.605H54.3105C53.4727 185.605 53.0664 185.453 52.5078 184.92C52.127 184.539 51.7969 184.082 51.7969 183.904C51.7969 183.422 51.1875 183.498 50.6543 184.082Z" fill="url(#paint16_linear_1787_6351)"/>
<path d="M55.0982 187.865C55.0982 188.145 54.8697 188.906 54.5904 189.566C54.108 190.658 54.108 190.811 54.4635 191.369C55.0982 192.309 55.7838 192.004 56.2154 190.582C56.3424 190.201 56.4439 190.176 56.774 190.455C57.1041 190.709 57.2057 190.709 57.4088 190.404C57.9166 189.617 57.5104 188.018 56.7232 187.662C55.7584 187.23 55.0982 187.307 55.0982 187.865Z" fill="url(#paint17_linear_1787_6351)"/>
<path d="M127.258 187.966C126.725 188.22 126.674 188.347 126.827 189.363C127.131 191.445 127.385 191.623 128.528 190.505C129.391 189.693 129.442 188.779 128.68 188.119C127.995 187.585 128.02 187.585 127.258 187.966Z" fill="url(#paint18_linear_1787_6351)"/>
<path d="M139.013 190.582C138.049 191.191 137.109 191.674 136.931 191.699C136.754 191.699 136.525 191.902 136.398 192.131C136.195 192.486 136.424 192.689 137.82 193.324C138.988 193.883 139.521 194.01 139.597 193.781C139.724 193.375 140.156 193.4 140.156 193.832C140.156 194.035 141.019 194.441 142.314 194.873L144.447 195.559L145.183 194.975C145.59 194.645 146.123 194.238 146.377 194.111C147.088 193.68 146.478 192.867 144.65 191.801C143.787 191.293 142.847 190.684 142.568 190.455C141.324 189.389 140.918 189.414 139.013 190.582Z" fill="url(#paint19_linear_1787_6351)"/>
<path d="M125.684 192.385C125.684 192.512 126.166 193.019 126.775 193.502C127.359 193.959 129.391 195.863 131.27 197.691C134.9 201.22 135.408 201.601 136.475 201.601C137.312 201.601 139.471 203.379 139.902 204.394C140.156 205.004 140.41 205.156 141.299 205.308C142.492 205.486 143.025 205.283 143.939 204.293L144.549 203.633H143.355C141.984 203.633 141.654 203.226 142.213 202.185L142.568 201.525L142.797 202.338C142.975 202.972 143.152 203.125 143.736 203.125C144.117 203.125 144.727 203.226 145.082 203.379C145.514 203.531 145.971 203.531 146.377 203.379C146.91 203.176 147.012 202.972 147.012 202.135C147.012 201.576 147.139 201.043 147.266 200.967C147.418 200.89 147.52 200.535 147.52 200.205C147.52 199.469 145.717 198.301 144.574 198.301C143.99 198.301 143.609 198.047 142.873 197.158C141.807 195.888 141.477 195.812 139.572 196.396C138.277 196.777 138.328 196.803 137.16 195.406C136.805 194.949 135.941 194.873 135.713 195.254C135.637 195.381 135.154 195.508 134.672 195.508C133.936 195.508 133.707 195.355 133.352 194.72C132.641 193.451 130.33 192.435 127.791 192.258C126.496 192.181 125.684 192.232 125.684 192.385Z" fill="url(#paint20_linear_1787_6351)"/>
</g>
<defs>
<linearGradient id="paint0_linear_1787_6351" x1="129.968" y1="54.6108" x2="129.968" y2="191.995" gradientUnits="userSpaceOnUse">
<stop stop-color="#D65F00"/>
<stop offset="1" stop-color="#703200"/>
</linearGradient>
<linearGradient id="paint1_linear_1787_6351" x1="232.086" y1="83.0379" x2="232.086" y2="102.284" gradientUnits="userSpaceOnUse">
<stop stop-color="#D65F00"/>
<stop offset="1" stop-color="#703200"/>
</linearGradient>
<linearGradient id="paint2_linear_1787_6351" x1="206.404" y1="91.6602" x2="206.404" y2="95.9199" gradientUnits="userSpaceOnUse">
<stop stop-color="#D65F00"/>
<stop offset="1" stop-color="#703200"/>
</linearGradient>
<linearGradient id="paint3_linear_1787_6351" x1="226.519" y1="96.739" x2="226.519" y2="102.8" gradientUnits="userSpaceOnUse">
<stop stop-color="#D65F00"/>
<stop offset="1" stop-color="#703200"/>
</linearGradient>
<linearGradient id="paint4_linear_1787_6351" x1="49.8314" y1="157.18" x2="49.8314" y2="162.75" gradientUnits="userSpaceOnUse">
<stop stop-color="#D65F00"/>
<stop offset="1" stop-color="#703200"/>
</linearGradient>
<linearGradient id="paint5_linear_1787_6351" x1="62.0581" y1="157.218" x2="62.0581" y2="162.754" gradientUnits="userSpaceOnUse">
<stop stop-color="#D65F00"/>
<stop offset="1" stop-color="#703200"/>
</linearGradient>
<linearGradient id="paint6_linear_1787_6351" x1="60.5796" y1="165.304" x2="60.5796" y2="176.211" gradientUnits="userSpaceOnUse">
<stop stop-color="#D65F00"/>
<stop offset="1" stop-color="#703200"/>
</linearGradient>
<linearGradient id="paint7_linear_1787_6351" x1="43.8491" y1="167.353" x2="43.8491" y2="174.409" gradientUnits="userSpaceOnUse">
<stop stop-color="#D65F00"/>
<stop offset="1" stop-color="#703200"/>
</linearGradient>
<linearGradient id="paint8_linear_1787_6351" x1="69.2965" y1="167.847" x2="69.2965" y2="170.117" gradientUnits="userSpaceOnUse">
<stop stop-color="#D65F00"/>
<stop offset="1" stop-color="#703200"/>
</linearGradient>
<linearGradient id="paint9_linear_1787_6351" x1="69.3027" y1="170.663" x2="69.3027" y2="172.148" gradientUnits="userSpaceOnUse">
<stop stop-color="#D65F00"/>
<stop offset="1" stop-color="#703200"/>
</linearGradient>
<linearGradient id="paint10_linear_1787_6351" x1="50.6339" y1="171.167" x2="50.6339" y2="181.445" gradientUnits="userSpaceOnUse">
<stop stop-color="#D65F00"/>
<stop offset="1" stop-color="#703200"/>
</linearGradient>
<linearGradient id="paint11_linear_1787_6351" x1="67.2884" y1="173.236" x2="67.2884" y2="180.15" gradientUnits="userSpaceOnUse">
<stop stop-color="#D65F00"/>
<stop offset="1" stop-color="#703200"/>
</linearGradient>
<linearGradient id="paint12_linear_1787_6351" x1="62.8618" y1="173.594" x2="62.8618" y2="176.219" gradientUnits="userSpaceOnUse">
<stop stop-color="#D65F00"/>
<stop offset="1" stop-color="#703200"/>
</linearGradient>
<linearGradient id="paint13_linear_1787_6351" x1="74.9543" y1="175.889" x2="74.9543" y2="179.997" gradientUnits="userSpaceOnUse">
<stop stop-color="#D65F00"/>
<stop offset="1" stop-color="#703200"/>
</linearGradient>
<linearGradient id="paint14_linear_1787_6351" x1="72.2323" y1="177.517" x2="72.2323" y2="180.781" gradientUnits="userSpaceOnUse">
<stop stop-color="#D65F00"/>
<stop offset="1" stop-color="#703200"/>
</linearGradient>
<linearGradient id="paint15_linear_1787_6351" x1="63.083" y1="177.988" x2="63.083" y2="187.742" gradientUnits="userSpaceOnUse">
<stop stop-color="#D65F00"/>
<stop offset="1" stop-color="#703200"/>
</linearGradient>
<linearGradient id="paint16_linear_1787_6351" x1="51.1367" y1="183.588" x2="51.1367" y2="189.186" gradientUnits="userSpaceOnUse">
<stop stop-color="#D65F00"/>
<stop offset="1" stop-color="#703200"/>
</linearGradient>
<linearGradient id="paint17_linear_1787_6351" x1="55.9222" y1="187.385" x2="55.9222" y2="191.908" gradientUnits="userSpaceOnUse">
<stop stop-color="#D65F00"/>
<stop offset="1" stop-color="#703200"/>
</linearGradient>
<linearGradient id="paint18_linear_1787_6351" x1="127.984" y1="187.697" x2="127.984" y2="191.186" gradientUnits="userSpaceOnUse">
<stop stop-color="#D65F00"/>
<stop offset="1" stop-color="#703200"/>
</linearGradient>
<linearGradient id="paint19_linear_1787_6351" x1="141.5" y1="189.68" x2="141.5" y2="195.559" gradientUnits="userSpaceOnUse">
<stop stop-color="#D65F00"/>
<stop offset="1" stop-color="#703200"/>
</linearGradient>
<linearGradient id="paint20_linear_1787_6351" x1="136.602" y1="192.223" x2="136.602" y2="205.366" gradientUnits="userSpaceOnUse">
<stop stop-color="#D65F00"/>
<stop offset="1" stop-color="#703200"/>
</linearGradient>
<clipPath id="clip0_1787_6351">
<rect width="260" height="260" fill="white"/>
</clipPath>
</defs>
</svg>
