<svg width="260" height="260" viewBox="0 0 260 260" fill="none" xmlns="http://www.w3.org/2000/svg">
<path d="M108.569 41.082C108.468 41.793 108.265 42.1484 107.782 42.3516C106.995 42.707 105.37 42.7324 103.974 42.4023C103.009 42.1738 102.907 42.2246 102.019 43.0879C100.825 44.2305 101.028 44.8398 102.679 45.0684C103.694 45.2207 103.847 45.3477 104.177 46.1855C104.38 46.6934 104.532 47.125 104.507 47.1758C104.456 47.2012 103.948 47.0488 103.339 46.8457C101.892 46.3379 101.079 46.3633 98.9462 46.998C97.9306 47.3027 97.0927 47.582 97.0673 47.582C97.0419 47.6074 97.1181 48.0645 97.2705 48.5723C97.4736 49.334 97.4228 49.7148 96.8642 51.0098C96.5087 51.8477 96.2294 52.7871 96.2294 53.0664C96.2294 53.3457 96.204 53.5742 96.1787 53.5742C96.1279 53.5742 94.4013 53.9043 92.2939 54.3359C90.2119 54.7422 88.206 55.0977 87.8759 55.0977C87.0634 55.0977 85.2861 56.5957 84.3974 57.9668C83.7626 59.0078 83.5849 59.1094 82.29 59.3125C80.9951 59.5156 80.8427 59.6172 80.3095 60.5566C79.8271 61.3945 79.7255 61.9531 79.7255 63.8574C79.7255 66.0664 79.7509 66.1934 80.6142 67.4629C81.1474 68.2754 81.5029 69.0879 81.5029 69.5703C81.5029 70.002 81.6298 70.8652 81.7822 71.5C82.0107 72.3379 82.2138 72.668 82.6708 72.7695L83.2802 72.9219L82.5693 73.6074C82.1884 73.9629 81.6806 74.5469 81.4267 74.877L81.0205 75.4863L79.4208 75.0293C78.329 74.7246 76.4248 74.5215 73.5048 74.3945C70.8388 74.2676 68.1728 73.9883 66.5224 73.6582C63.247 72.998 60.8349 72.9727 58.372 73.6074C54.7412 74.5215 54.7919 74.5215 53.6748 73.4297C50.704 70.5098 49.663 69.0371 48.8505 66.5742C48.1904 64.5938 47.8857 64.0605 47.0732 63.4004C46.54 62.9434 45.9052 62.4102 45.6513 62.207C45.3466 61.9531 45.0419 61.0391 44.788 59.668L44.3564 57.5098L41.9443 55.2246C40.5986 53.9551 38.5927 52.3809 37.4755 51.6953C35.2158 50.3242 29.706 47.6074 28.6396 47.3535C28.208 47.252 26.9892 47.4551 25.2119 47.9629C22.9521 48.5977 21.9873 48.75 19.8798 48.75C17.4423 48.75 17.2138 48.8008 15.1826 49.7148C14.04 50.248 12.3388 50.832 11.4501 51.0098C9.87593 51.3145 9.69819 51.4414 4.97553 55.4023C2.30952 57.6621 0.100534 59.5664 0.0751437 59.6426C0.0243625 59.7188 0.379831 60.0488 0.862253 60.3789C1.57319 60.8613 1.72553 61.166 1.85249 62.1055C1.90327 62.7402 1.8271 63.7559 1.62397 64.3652L1.29389 65.5078L2.51264 66.8281C4.41694 68.9609 5.28022 70.2559 5.45796 71.4238C5.55952 72.0078 5.96577 73.709 6.37202 75.207C7.31147 78.7109 7.31147 79.4727 6.34663 80.8691C5.71186 81.7832 5.50874 82.4434 5.30561 84.2207C5.05171 86.1504 4.92475 86.5566 4.06147 87.6992C3.42671 88.5625 2.91889 89.6797 2.53803 91.0254C2.03022 92.8027 2.00483 93.2344 2.25874 94.7578C2.41108 95.6973 2.53803 97.373 2.53803 98.4902C2.53803 99.6836 2.6396 100.598 2.81733 100.699C2.96968 100.775 3.55366 101.562 4.11225 102.426L5.12788 103.975L4.97553 102.604C4.82319 101.359 4.82319 101.258 5.25483 101.461C5.50874 101.562 6.98139 101.715 8.50483 101.816C11.5771 101.969 15.4873 103.061 15.4873 103.721C15.4873 103.924 15.2587 104.66 14.9794 105.371C14.3193 107.047 14.3193 108.494 15.0048 109.408C15.5126 110.094 15.5126 110.17 15.1064 110.805C14.7255 111.389 14.497 111.465 13.1767 111.465C11.7294 111.465 11.6787 111.439 11.6787 110.805C11.6787 110.449 11.8056 109.941 11.958 109.662C12.5673 108.52 11.958 108.748 10.2822 110.271C9.01264 111.414 8.30171 112.328 7.79389 113.395L7.10835 114.893L8.09858 117.432L9.11421 119.971V118.27L9.1396 116.568L9.97749 116.822C10.4091 116.949 11.3486 117.178 12.0341 117.305C15.0302 117.914 15.1064 117.939 15.8173 119.539C16.1728 120.326 16.5283 121.266 16.6298 121.621C16.7822 122.18 17.5439 123.576 18.2548 124.668C18.4072 124.896 19.0927 125.1 19.9814 125.176C21.3271 125.303 21.454 125.354 21.5302 125.938C21.581 126.293 22.0634 126.979 22.6474 127.486L23.663 128.426L22.9775 130.533C22.4697 132.057 21.9365 133.047 21.1748 133.936C20.2353 135.053 20.083 135.434 19.8544 136.982C19.7275 137.973 19.7021 139.395 19.829 140.156C20.1845 142.645 20.0576 144.854 19.4228 148.027C18.6357 151.912 18.5849 155.238 19.2958 159.326C19.5751 160.951 19.8037 162.906 19.8037 163.643C19.8037 164.734 19.9052 165.039 20.2607 165.115C22.2665 165.674 23.8408 165.902 25.9228 165.902C28.3349 165.928 28.4111 165.902 30.4931 164.836C31.7119 164.201 33.1337 163.668 33.7939 163.592C36.0029 163.338 37.0693 161.611 37.0693 158.285C37.0693 157.193 37.0947 157.143 38.1865 156.66C38.9736 156.33 39.456 155.898 39.8876 155.162C40.3447 154.35 40.8017 153.969 42.0712 153.385C42.9599 152.953 44.3564 152.09 45.1943 151.455L46.7177 150.287L50.3486 149.83C53.4716 149.449 54.081 149.424 54.9697 149.729C55.5283 149.932 57.1279 150.186 58.5244 150.312C64.3388 150.846 66.1162 150.49 66.624 148.662C66.8525 147.875 67.1826 147.469 68.1728 146.834C69.0615 146.25 69.5947 146.047 69.9501 146.174C70.2294 146.275 71.5498 146.352 72.8701 146.377C74.9521 146.402 75.4599 146.504 76.5771 147.062C77.2626 147.443 78.2783 147.824 78.8115 147.9C79.624 148.078 79.8779 147.977 80.7412 147.291C81.3251 146.834 82.0107 146.504 82.4423 146.504C83.1025 146.504 83.2802 146.707 84.2451 148.662C84.829 149.855 85.3115 151.125 85.3115 151.455C85.3115 153.207 87.1142 154.223 92.2685 155.391C94.0966 155.797 96.7373 156.559 98.1337 157.117L100.647 158.107L100.952 159.326C101.308 160.723 101.384 160.799 102.552 161.205C104.024 161.688 105.522 161.561 106.69 160.824L107.757 160.139L109.128 160.57C110.27 160.951 110.677 160.977 111.667 160.723C112.81 160.418 112.911 160.443 114.257 161.23C115.019 161.688 116.237 162.271 116.974 162.525C117.71 162.754 118.726 163.262 119.259 163.617C119.944 164.1 120.554 164.277 121.417 164.277H122.636V165.852C122.636 167.223 122.813 167.781 123.727 169.609C124.667 171.514 124.946 171.844 125.936 172.326C126.571 172.656 127.282 173.139 127.511 173.443C127.892 173.9 128.196 173.951 129.999 173.9L132.03 173.85L132.614 174.713C133.046 175.373 133.452 175.602 134.315 175.779C135.813 176.084 136.27 176.516 137.159 178.496C138.302 181.035 139.368 182.533 140.282 182.914C140.765 183.117 141.222 183.574 141.399 184.031C141.577 184.438 141.958 184.869 142.263 184.945C142.567 185.021 145.868 185.098 149.601 185.098H156.38L156.761 186.418C156.964 187.154 157.192 188.779 157.294 190.049C157.37 191.293 157.599 193.121 157.802 194.111C158.132 195.736 158.106 196.117 157.599 198.783C157.04 201.652 157.04 201.678 157.548 202.008C159.046 202.998 159.02 202.947 159.097 205.283C159.147 206.502 159.249 207.822 159.325 208.229C159.477 208.889 159.579 208.965 160.569 208.965C161.585 208.965 161.737 209.066 163.007 210.539C164.733 212.621 165.647 213.23 167.552 213.688C168.999 214.018 169.304 213.992 170.954 213.586C173.468 212.951 174.966 213.23 175.727 214.449C176.007 214.932 176.616 215.516 177.048 215.719C178.394 216.404 178.977 217.09 179.384 218.512C179.612 219.273 179.866 219.883 179.993 219.883C180.12 219.883 181.136 218.969 182.253 217.826L184.31 215.795L185.579 216.43C186.366 216.836 187.28 217.09 187.991 217.09C189.032 217.09 189.235 216.963 191.343 215.008C192.587 213.84 194.136 212.621 194.821 212.266C195.938 211.656 196.015 211.58 196.015 210.59C196.015 210.006 196.091 209.016 196.167 208.381C196.319 207.289 196.37 207.213 197.462 206.908L198.579 206.604L197.31 205.309C196.522 204.521 195.964 203.684 195.862 203.176L195.71 202.363L196.852 202.516C197.817 202.668 198.401 202.541 200.382 201.729C201.677 201.221 203.327 200.459 204.038 200.053C204.749 199.646 205.663 199.316 206.069 199.316C206.476 199.316 207.44 199.062 208.202 198.758C208.989 198.453 210.436 198.148 211.503 198.047C213.56 197.92 213.509 197.945 213.204 196.27C213.077 195.711 213.229 195.559 214.626 194.924C215.489 194.543 216.505 194.238 216.911 194.238C217.343 194.238 217.597 194.111 217.597 193.857C217.597 193.654 218.079 193.273 218.688 193.02C219.501 192.664 220.11 192.08 220.948 190.912C223.36 187.484 223.436 187.281 223.436 184.158V181.34L224.706 178.496C225.696 176.262 225.976 175.373 225.976 174.307C225.976 173.57 226.052 172.453 226.128 171.793C226.306 170.625 226.306 170.625 228.489 169.457C230.546 168.34 230.774 168.264 232.399 168.314C233.339 168.34 234.71 168.213 235.446 167.984C236.157 167.781 237.528 167.477 238.442 167.324L240.144 167.02L240.677 165.217C240.981 164.201 241.21 163.109 241.21 162.805C241.21 162.043 242.378 160.393 243.267 159.859C243.901 159.479 243.977 159.479 244.333 160.037C244.561 160.393 245.272 160.799 246.186 161.078C247.024 161.332 248.269 161.865 249.005 162.271C250.503 163.109 253.499 163.82 255.175 163.77C256.977 163.719 257.79 163.109 258.044 161.611C258.196 160.773 258.145 160.012 257.968 159.377C257.765 158.641 257.765 158.082 257.968 157.092C258.171 156.229 258.196 155.467 258.044 154.883C257.739 153.715 258.12 151.887 258.831 151.074C260.075 149.678 260.075 149.652 259.517 148.611C258.958 147.469 258.12 147.012 256.698 147.012C255.987 147.012 254.997 146.656 253.347 145.768C252.052 145.082 250.63 144.447 250.198 144.346C249.767 144.27 249.132 143.914 248.802 143.559C248.091 142.797 246.872 142.441 244.968 142.441C243.698 142.441 243.47 142.518 242.911 143.203C242.556 143.609 242.099 143.965 241.921 143.965C240.601 143.965 235.954 141.502 230.419 137.896C228.616 136.729 225.798 135.129 224.198 134.367C221.354 132.996 219.476 131.701 216.022 128.654L214.347 127.156L212.925 127.613L211.528 128.045L206.933 125.277C202.54 122.637 202.286 122.408 200.686 120.402C199.163 118.498 198.782 118.193 196.802 117.178C195.608 116.568 194.212 115.654 193.729 115.146C192.765 114.105 185.401 109.18 181.999 107.275C180.044 106.184 179.79 105.955 179.181 104.711C178.724 103.771 178.495 102.908 178.495 102.07C178.495 101.131 178.317 100.547 177.733 99.6074C177.302 98.9219 176.895 97.9062 176.819 97.3477C176.743 96.8145 176.438 95.8242 176.159 95.1641C175.702 94.1484 175.474 93.9199 174.331 93.4883C173.163 93.0566 173.036 92.9297 172.96 92.168C172.909 91.6855 172.554 90.8477 172.173 90.2891C170.649 88.0547 169.608 85.6426 169.583 84.2461C169.583 83.5098 169.38 82.3418 169.151 81.6816C168.186 78.9648 163.997 75.1562 161.966 75.1562C161.458 75.1562 160.544 74.9785 159.96 74.7754C159.376 74.5723 158.843 74.3945 158.817 74.3945C158.767 74.3945 158.665 74.9023 158.589 75.5117C158.335 77.0605 157.522 77.6191 156.05 77.1875C155.466 77.0352 154.577 76.6289 154.069 76.2734C152.927 75.5371 152.8 75.5371 152.216 76.1719C151.784 76.6289 151.733 76.6289 150.972 76.248C149.651 75.5371 147.595 75.4102 146.02 75.9434C143.38 76.8574 141.196 76.0703 136.905 72.668C135.966 71.9062 135.864 71.7285 135.991 71.0176C136.093 70.5605 136.372 69.7227 136.651 69.1133L137.159 68.0215L136.372 66.2441C135.483 64.2383 135.433 63.9336 135.966 63.4766C136.296 63.1973 136.55 63.248 137.388 63.7051C137.946 64.0352 138.479 64.2383 138.53 64.1621C138.606 64.0859 138.581 63.6289 138.505 63.1465C138.352 62.4102 138.022 62.0293 136.397 60.8613C135.306 60.0996 133.985 59.3379 133.452 59.1602L132.436 58.8301L132.995 58.373C133.3 58.1445 133.681 57.8906 133.808 57.8398C133.96 57.7891 133.935 57.4082 133.757 56.7988C133.503 55.9609 133.528 55.707 133.909 54.9961C134.315 54.2344 134.315 54.082 133.985 53.4219C133.3 52.0762 131.7 51.1113 129.313 50.5273C128.095 50.248 127.841 50.2734 126.571 50.8066L125.175 51.3906L122.966 50.6289L120.731 49.8926L120.655 48.8516C120.604 48.0137 120.376 47.6074 119.487 46.7441C118.522 45.8047 118.294 45.7031 117.862 45.9316C117.583 46.084 116.847 46.2109 116.237 46.2109C115.171 46.2109 115.044 46.1094 112.099 43.1641C110.423 41.4883 108.976 40.1172 108.899 40.1172C108.798 40.1172 108.671 40.5488 108.569 41.082Z" fill="url(#paint0_linear_1787_6440)"/>
<defs>
<linearGradient id="paint0_linear_1787_6440" x1="129.973" y1="40.1172" x2="129.973" y2="219.883" gradientUnits="userSpaceOnUse">
<stop stop-color="#D65F00"/>
<stop offset="1" stop-color="#703200"/>
</linearGradient>
</defs>
</svg>
