<svg width="260" height="260" viewBox="0 0 260 260" fill="none" xmlns="http://www.w3.org/2000/svg">
<path d="M162.017 43.0625C160.824 43.3164 160.138 43.3418 159.478 43.1641C158.158 42.8086 156.914 42.8594 156.762 43.2656C156.685 43.4688 155.873 44.1289 154.984 44.7129C153.638 45.5762 153.283 45.7031 152.978 45.4492C152.648 45.1953 152.496 45.1953 152.115 45.5508C151.785 45.8555 151.429 45.9062 150.795 45.7793C149.678 45.5762 148.357 45.0176 148.154 44.6875C148.078 44.5605 147.722 44.4336 147.392 44.4336C147.062 44.4336 146.707 44.3066 146.631 44.1797C146.554 44.0273 146.301 43.9258 146.097 43.9258C145.793 43.9258 145.742 44.1543 145.869 45.0176C145.996 45.8555 145.945 46.1855 145.64 46.4395C145.285 46.7188 145.285 46.8457 145.615 47.2773C145.92 47.7344 145.92 47.8867 145.539 48.4453C145.31 48.8008 144.676 49.4102 144.117 49.791C142.72 50.8066 141.349 50.8066 140.283 49.7656C139.597 49.0801 139.394 49.0293 138.81 49.2324C138.404 49.3848 137.871 49.4102 137.312 49.2324C136.855 49.1055 136.017 49.0039 135.484 49.0039C134.926 49.0039 134.291 48.8262 134.062 48.623C133.681 48.2676 133.554 48.293 132.97 48.7754C132.59 49.0547 132.285 49.5117 132.285 49.7656C132.285 50.2227 131.269 50.6797 131.015 50.2988C130.66 49.7656 129.365 49.5879 128.553 49.9688C128.095 50.1973 127.715 50.4766 127.715 50.6035C127.715 50.832 126.902 51.9238 125.582 53.3965C125.201 53.8535 124.642 54.6406 124.388 55.1738C124.109 55.707 123.5 56.5703 123.043 57.0781C122.56 57.5859 122.103 58.3984 122.002 58.8555C121.748 60.0488 121.773 61.4707 122.053 61.6738C122.433 61.9277 122.662 63.1719 122.357 63.3496C122.179 63.4766 122.205 63.6543 122.459 63.9336C123.068 64.6445 123.22 65.5332 122.89 66.5488C122.611 67.3867 122.459 67.5391 121.824 67.5391C121.418 67.5391 121.037 67.3867 120.961 67.1582C120.859 66.9551 120.605 66.7773 120.377 66.7773C120.123 66.7773 119.691 66.5234 119.361 66.2441C118.879 65.8125 118.803 65.5332 118.955 64.8223C119.082 64.1113 118.98 63.7812 118.472 63.0957C117.584 61.9531 116.238 61.6992 114.791 62.4355C113.928 62.8926 113.674 62.918 113.217 62.6641C112.785 62.3848 112.658 62.4102 112.353 62.791C111.871 63.4766 111.109 63.248 111.008 62.3848C110.931 61.8516 110.779 61.6992 110.322 61.6992C109.992 61.6992 109.484 61.9277 109.205 62.2324C108.926 62.5371 108.595 62.6895 108.443 62.6133C108.291 62.5117 108.113 62.8164 108.012 63.3496C107.834 64.3398 107.834 64.3398 107.123 63.959C106.717 63.7559 106.463 63.7812 105.98 64.1113C105.447 64.4668 105.371 64.4668 105.371 64.1113C105.371 63.9082 105.168 63.6035 104.888 63.4258C104.533 63.1973 104.431 62.918 104.533 62.207C104.762 60.4805 102.806 58.9824 101.715 60.0488C101.512 60.252 101.029 60.4043 100.623 60.3789C98.9724 60.2773 98.5916 60.4043 97.906 61.4453C97.5506 62.0039 97.0935 62.4609 96.9158 62.4609C96.7381 62.4609 96.4842 61.9785 96.3318 61.3691C96.1033 60.3027 96.1033 60.3027 94.6306 60.0742C93.3865 59.8711 93.0818 59.8965 92.7517 60.252C92.3455 60.6328 92.2693 60.6074 91.6092 59.5918C91.2283 59.0078 90.8982 58.373 90.8982 58.1953C90.8982 57.7129 89.8826 57.8398 89.7049 58.3223C89.1971 59.8203 87.5467 60.3789 86.5818 59.4141C86.3025 59.1348 85.7693 58.9062 85.4138 58.9062C84.8045 58.9062 84.7537 58.957 84.906 59.7695C85.0584 60.5312 84.9822 60.709 84.2967 61.1914C83.0525 62.0801 82.5701 61.2676 83.5349 59.9219L84.0681 59.1855L82.7478 58.7793C81.1736 58.3223 80.6404 58.2969 79.9549 58.6523C79.6248 58.8301 79.3201 58.8301 78.99 58.6523C78.6346 58.4746 78.2791 58.4746 77.7967 58.6523C77.1619 58.9062 77.1365 58.8809 77.2381 58.1699C77.3142 57.6621 77.2381 57.3574 76.9842 57.2559C76.7049 57.1543 76.6541 56.8496 76.781 55.9863L76.9588 54.8438H75.6131C74.8513 54.8438 74.115 54.9707 73.9627 55.123C73.7596 55.3262 73.531 55.3262 73.1756 55.123C72.8963 54.9707 72.4138 54.8438 72.1092 54.8438C71.8299 54.8438 71.2967 54.5391 70.9666 54.1836C70.1287 53.2949 69.1385 53.0664 68.1228 53.5234C67.158 53.9805 66.5232 53.6504 66.5232 52.6348C66.5232 52.1523 66.3963 52.0254 65.9646 52.0508C63.908 52.2285 62.9431 52.0508 62.3084 51.3652C61.7752 50.8066 61.4197 50.6543 60.4803 50.6289C59.8201 50.6289 58.9568 50.4258 58.5252 50.2227C57.8904 49.918 57.281 49.8926 55.1228 50.0703C52.7361 50.2734 52.4314 50.248 51.949 49.8164C50.8572 48.8516 50.2732 48.7754 48.4959 49.3594C46.7947 49.8926 45.1951 49.9688 41.2849 49.6895C39.6092 49.5625 39.4822 49.5879 38.4158 50.3496C37.5779 50.9844 37.3494 51.3145 37.3748 51.7969C37.451 52.6348 37.2224 52.9648 36.0291 53.7266C35.4705 54.082 34.7088 54.6914 34.3279 55.123C33.6931 55.8086 33.5662 55.8594 32.7791 55.6309C32.2967 55.4785 31.8142 55.4277 31.6873 55.5293C31.5349 55.6055 31.5096 55.4531 31.6111 55.123C31.7381 54.7168 31.6365 54.5391 31.1541 54.3613C30.7986 54.209 30.4431 54.0059 30.367 53.8789C30.2908 53.7266 29.7576 53.8027 29.0721 54.0566C28.2342 54.3613 27.9549 54.5645 28.0818 54.8438C28.1834 55.0469 28.2088 55.4023 28.1834 55.6055C28.158 55.8086 28.158 56.7988 28.158 57.8145C28.158 58.8301 28.0564 59.7188 27.9295 59.7949C27.5994 59.998 27.5994 61.9531 27.9295 61.9531C28.0564 61.9531 28.3865 62.4355 28.6404 63.0195C28.8943 63.6289 29.3006 64.2637 29.5291 64.4668C29.783 64.6445 29.9607 65.1777 29.9607 65.6602C29.9607 66.1172 30.0877 66.5742 30.2146 66.6504C30.367 66.7266 30.4685 67.0059 30.4685 67.2598C30.4685 67.5137 30.6209 67.8691 30.824 68.0215C31.0017 68.1738 31.2303 68.6562 31.3318 69.0879C31.408 69.5195 31.8142 70.1797 32.2459 70.5859C32.6521 70.9668 33.0076 71.5254 33.0076 71.8047C33.0076 72.2617 32.906 72.3125 32.2459 72.1094C31.5349 71.9062 31.4334 71.957 31.2049 72.541C31.0271 73.0488 31.0525 73.4297 31.3572 74.0645C31.5857 74.5215 31.865 74.9023 31.992 74.9023C32.449 74.9023 32.2205 77.7969 31.6619 79.3457L31.1033 80.8691L28.9959 80.9961L26.8885 81.123L25.6951 82.4434C25.0349 83.1797 23.5877 84.4238 22.4959 85.2109C20.1346 86.8613 15.2849 91.6855 13.8631 93.7676C13.2537 94.6309 12.6697 95.2148 12.3904 95.2148C12.1111 95.2148 11.9334 95.3926 11.9334 95.6719C11.9334 95.9258 11.5525 96.3066 11.0955 96.5605C10.0545 97.1445 9.41971 98.5664 9.95291 99.2012C10.1814 99.5059 10.283 100.42 10.2322 102.553C10.2322 104.178 10.156 105.777 10.1053 106.133C10.0545 106.59 10.2068 106.844 10.7146 107.098C11.6033 107.504 11.9842 108.215 11.8826 109.18L11.8064 109.916L9.95291 109.154C7.59158 108.215 7.23611 108.215 6.90603 109.18C6.7283 109.662 6.29666 110.094 5.73807 110.373C4.92557 110.754 4.824 110.906 4.824 111.744C4.824 112.328 4.67166 112.785 4.44314 112.912C4.24002 113.039 3.90994 113.623 3.68143 114.258C3.27518 115.4 2.41189 116.67 1.24393 117.863C0.0505663 119.057 -0.127168 120.098 0.482207 121.951C1.0408 123.627 2.1326 125.43 2.56424 125.43C2.71658 125.43 3.45291 126.014 4.21463 126.725C5.17947 127.664 5.58572 128.223 5.58572 128.705C5.58572 129.771 5.9158 130.025 7.41385 130.102C9.34353 130.203 9.49588 130.355 9.29275 131.727C9.19119 132.438 9.24197 132.996 9.41971 133.199C9.85135 133.732 10.156 133.631 10.156 132.92C10.156 132.311 10.2322 132.285 11.1209 132.438C11.908 132.564 12.1873 132.488 12.6951 131.98C13.0506 131.65 13.4568 131.143 13.6092 130.889C13.9646 130.254 15.1326 130.559 15.3611 131.346C15.4627 131.65 15.8943 132.285 16.326 132.742C17.0623 133.504 17.24 133.555 18.7381 133.555C20.8455 133.555 22.5467 133.986 22.8767 134.621C23.1053 135.053 23.3084 135.104 24.6033 134.951C25.949 134.799 26.1521 134.85 27.5994 135.688C29.199 136.627 29.7576 136.652 31.3318 135.814C31.7888 135.535 33.9217 135.713 34.4549 136.043C34.5818 136.145 34.9373 136.754 35.2166 137.389C35.5467 138.1 36.0545 138.76 36.5369 139.039C36.9685 139.293 37.4763 139.902 37.7049 140.461C38.0096 141.273 38.2127 141.426 38.8221 141.426C40.5232 141.426 41.1834 141.096 42.8592 139.395C44.4588 137.795 44.6619 137.668 45.9568 137.516C46.7439 137.414 48.3435 137.414 49.5115 137.49C50.8064 137.592 52.1775 137.541 52.9392 137.363C53.6502 137.186 54.9197 137.059 55.783 137.059C57.3064 137.059 57.3826 137.033 57.8904 136.195C58.1951 135.738 58.7029 135.129 59.0076 134.9C59.3123 134.646 59.6678 134.164 59.7439 133.809C59.9978 132.844 60.201 132.691 61.5721 132.336C63.0955 131.955 65.1521 130.609 65.3806 129.873C65.5076 129.391 65.533 129.391 65.7869 129.797C66.1424 130.432 67.5388 130.406 67.5388 129.797C67.5388 129.568 67.3103 129.213 67.031 129.035C66.3709 128.629 66.3709 127.969 67.0056 127.969C67.2849 127.969 68.0467 128.248 68.6814 128.578C70.0017 129.289 70.5857 129.213 70.5857 128.324C70.5857 127.588 70.865 127.562 71.4744 128.223C71.8299 128.629 72.1346 128.705 72.6931 128.578C73.2263 128.477 73.5056 128.553 73.7342 128.883C74.115 129.391 74.6482 129.162 74.6482 128.502C74.6482 128.273 74.8006 127.842 75.0037 127.562C75.3592 127.105 75.3846 127.105 75.5369 127.791C75.7654 128.654 76.4763 128.705 77.0349 127.867C77.6189 126.953 78.406 126.775 78.8885 127.461C79.2185 127.918 79.4217 127.969 80.3611 127.842C81.4021 127.664 81.4529 127.689 82.0115 128.654C83.0017 130.279 83.5603 130.762 84.449 130.762C85.3377 130.762 85.617 131.016 85.6678 131.879C85.6931 132.26 85.8963 132.438 86.4041 132.488C86.7849 132.539 87.0896 132.742 87.0896 132.92C87.0896 133.504 87.5467 133.605 88.156 133.199C88.9431 132.641 89.6287 132.691 89.6287 133.275C89.6287 133.529 89.4763 133.885 89.2732 134.037C89.0701 134.189 88.867 134.57 88.7908 134.824C88.6131 135.51 89.2478 135.484 89.7303 134.773L90.1111 134.24L90.3396 134.85C90.4666 135.18 90.6189 135.688 90.6697 135.941C90.8221 136.729 91.3299 136.678 91.4822 135.891C91.6599 134.951 92.9803 134.316 93.7166 134.773C93.9705 134.951 94.5291 135.002 94.9861 134.9C95.951 134.723 96.4842 135.256 96.4842 136.424C96.4842 136.83 96.7127 137.439 96.992 137.795C97.2713 138.15 97.4998 138.658 97.4998 138.938C97.4998 139.318 97.6013 139.369 97.906 139.191C98.1853 139.039 98.5916 139.09 99.074 139.318C99.7596 139.674 99.8611 139.674 100.445 139.115C101.181 138.43 101.486 138.633 101.613 139.902C101.664 140.562 101.791 140.791 102.146 140.766C102.679 140.715 102.654 140.639 102.197 141.781C101.842 142.645 101.867 142.822 102.4 142.721C102.527 142.695 102.426 142.949 102.222 143.254C101.994 143.559 101.816 144.32 101.816 144.93C101.816 145.717 101.638 146.275 101.156 146.885C100.75 147.443 100.572 147.875 100.699 148.078C100.826 148.256 100.877 149.018 100.826 149.754C100.775 150.871 100.801 151.049 101.156 150.922C101.385 150.846 101.715 150.871 101.892 151.023C102.045 151.15 102.502 151.328 102.857 151.404C103.492 151.557 103.695 151.912 104.203 153.436C104.457 154.248 105.117 154.223 106.031 153.334L106.894 152.496V153.41C106.894 153.918 106.767 154.426 106.615 154.502C106.437 154.629 106.412 155.137 106.513 155.924C106.666 156.939 106.615 157.168 106.31 157.168C105.599 157.168 105.574 157.65 106.234 158.285C106.92 158.895 107.174 160.52 106.64 160.85C106.183 161.129 106.615 161.434 107.681 161.611C108.443 161.738 108.773 161.941 108.951 162.424C109.154 162.982 109.306 163.059 110.195 162.957C111.008 162.881 111.211 162.957 111.211 163.287C111.211 163.516 111.439 163.896 111.719 164.15C112.15 164.557 112.226 164.938 112.226 167.121C112.226 169.432 112.201 169.609 111.719 169.609C111.008 169.609 111.084 170.016 111.896 170.777C112.303 171.133 112.887 171.691 113.242 172.021C113.597 172.326 114.156 172.732 114.486 172.91C115.019 173.189 115.045 173.24 114.689 173.596C114.359 173.926 114.105 173.951 113.217 173.723C112.049 173.418 111.719 173.494 111.719 174.078C111.719 174.941 110.551 174.078 109.814 172.682C109.383 171.844 108.926 171.641 108.926 172.301C108.926 172.58 108.773 172.631 108.443 172.529C108.062 172.402 107.834 172.58 107.478 173.215C107.072 173.951 107.021 174.002 106.945 173.494C106.894 173.189 106.564 172.834 106.183 172.682C105.803 172.529 105.371 172.148 105.244 171.844C104.888 171.082 104.431 171.006 104.228 171.615C104.025 172.301 103.67 172.301 103.467 171.641C103.39 171.361 103.213 171.133 103.086 171.133C102.781 171.133 102.476 172.301 102.705 172.631C102.781 172.783 102.679 172.91 102.476 172.91C102.273 172.91 101.994 173.113 101.842 173.342C101.715 173.596 101.512 173.723 101.435 173.621C101.334 173.52 101.359 173.316 101.461 173.113C101.562 172.936 101.664 172.148 101.689 171.336C101.715 169.99 101.664 169.863 101.156 169.863C100.851 169.863 100.47 170.041 100.293 170.244C100.115 170.447 99.658 170.625 99.2517 170.625C98.7693 170.625 98.3885 170.828 98.1346 171.234C97.906 171.564 97.5252 171.895 97.2713 171.971C96.8142 172.072 96.8142 172.199 97.0935 173.596C97.3221 174.662 97.3474 175.271 97.1443 175.678C96.9158 176.186 96.992 176.363 97.7029 176.998C98.1599 177.404 98.5154 177.785 98.5154 177.861C98.5154 177.912 98.1599 178.496 97.7029 179.131C96.992 180.146 96.9158 180.35 97.2205 180.807C97.3982 181.111 97.4998 181.365 97.449 181.416C97.3982 181.441 96.7381 181.67 95.9763 181.924C93.9705 182.559 93.742 182.838 93.8943 184.361C93.9959 185.504 93.9451 185.656 93.4627 185.783C93.158 185.859 92.9295 186.113 92.9295 186.393C92.9295 186.773 92.7517 186.875 92.0408 186.875C91.406 186.875 91.1521 186.977 91.1521 187.281C91.1521 187.535 90.9998 187.637 90.7713 187.535C90.2888 187.357 89.8064 189.033 90.0349 190.15C90.1365 190.658 90.1111 190.938 89.908 190.938C89.7556 190.938 89.6287 191.268 89.6287 191.699C89.6287 192.537 89.1463 192.715 88.6131 192.08C88.1306 191.521 86.4295 191.598 85.8201 192.207C85.2107 192.816 85.1599 193.223 85.6931 193.223C85.9217 193.223 86.074 193.451 86.074 193.857C86.074 194.771 86.658 195.787 87.5213 196.422C88.867 197.412 90.8221 198.275 92.117 198.453C93.5135 198.631 94.5545 198.428 93.9959 198.072C93.742 197.92 93.742 197.691 93.9197 197.209C94.2244 196.396 94.5545 196.371 95.6717 197.031C96.6873 197.641 96.6619 197.641 96.8142 197.031C96.9412 196.523 97.3474 196.295 99.201 195.736C99.8103 195.584 100.47 195.229 100.699 194.949C101.029 194.619 101.486 194.492 102.629 194.492C104.304 194.492 105.345 194.873 106.64 195.965C107.377 196.6 107.529 196.93 107.656 198.021C107.935 200.764 108.976 199.062 109.078 195.711L109.154 193.502L108.012 193.654C107.224 193.756 106.894 193.705 106.894 193.502C106.894 192.867 109.89 190.074 112.658 188.094C114.385 186.875 116.213 185.326 117.254 184.158C119.387 181.797 119.717 181.238 119.463 180.629C119.336 180.35 119.056 179.639 118.853 179.029C118.498 178.115 118.244 177.836 117.406 177.506C116.847 177.277 116.086 176.871 115.756 176.592C114.537 175.627 114.638 173.926 115.933 173.926C116.314 173.926 116.517 174.027 116.416 174.205C116.187 174.561 116.974 175.398 118.117 175.982C119.234 176.541 119.463 176.871 119.387 177.76C119.361 178.217 119.513 178.496 119.97 178.75C120.478 179.029 120.529 179.156 120.326 179.562C120.174 179.816 120.097 180.248 120.148 180.477C120.224 180.832 120.301 180.781 120.58 180.273C121.469 178.623 123.779 174.764 124.16 174.307C124.414 174.027 124.719 173.443 124.871 173.012C125.074 172.326 125.049 172.123 124.642 171.717C123.804 170.904 124.262 170.447 126.013 170.244C126.877 170.143 128.248 169.838 129.06 169.559C130.254 169.127 130.635 169.076 131.168 169.33C132.31 169.838 133.047 169.66 133.961 168.67C134.443 168.162 134.9 167.832 135.002 167.908C135.103 168.01 135.027 168.238 134.875 168.391C134.697 168.568 134.57 168.771 134.57 168.873C134.57 169.203 135.89 169.381 136.246 169.102C136.474 168.898 137.185 168.848 138.429 168.975C141.146 169.229 141.578 168.695 141.045 165.775C140.842 164.734 141.451 163.262 142.06 163.262C142.517 163.262 142.568 163.668 142.162 163.922C142.01 163.998 141.73 164.455 141.527 164.938C141.222 165.648 141.222 165.877 141.527 166.486C141.73 166.867 142.06 167.629 142.289 168.188C142.644 169.025 142.797 169.152 143.355 169.025C143.838 168.949 144.117 169.076 144.523 169.609C144.955 170.193 145.31 170.371 146.529 170.498C148.129 170.676 148.484 171.133 147.469 171.666C146.783 172.021 142.289 171.742 140.842 171.234C140.283 171.031 139.013 170.879 138.023 170.879C136.957 170.879 136.068 170.752 135.89 170.574C135.281 169.965 135.332 170.574 135.941 171.311C136.804 172.352 137.896 172.783 138.607 172.402C138.963 172.225 139.293 172.225 139.597 172.377C139.826 172.504 140.689 172.682 141.502 172.783C142.568 172.91 143.025 173.113 143.228 173.469C143.381 173.748 143.457 174.002 143.406 174.027C142.517 174.688 141.324 175.195 140.74 175.195C139.75 175.195 139.191 175.779 139.648 176.338C140.105 176.896 140.918 176.82 140.918 176.211C140.918 175.475 141.299 175.576 141.933 176.465C142.314 176.998 142.695 177.227 143.203 177.227C143.584 177.227 143.965 177.404 144.066 177.607C144.142 177.811 144.498 177.988 144.828 177.988C145.488 177.988 146.25 178.801 146.25 179.512C146.25 179.791 146.885 180.07 148.433 180.502L150.642 181.111L151.937 180.629C152.851 180.299 153.943 180.146 155.644 180.121C158.844 180.096 158.818 180.121 158.437 179.639C157.955 179.055 158.361 178.852 159.148 179.309C159.961 179.791 160.722 179.512 160.722 178.75C160.722 178.471 160.849 178.242 160.976 178.242C161.129 178.242 161.23 178.674 161.23 179.182C161.23 180.02 161.256 180.07 161.56 179.639C161.941 179.131 162.627 179.334 162.398 179.893C162.322 180.096 162.424 180.375 162.627 180.527C162.881 180.73 162.982 180.73 163.084 180.477C163.16 180.248 163.388 180.375 163.769 180.857C164.303 181.518 164.353 181.543 164.937 181.162C165.267 180.959 165.724 180.781 165.953 180.781C166.283 180.781 166.308 180.705 166.08 180.426C165.826 180.121 165.877 179.943 166.258 179.562C166.664 179.156 166.816 179.131 167.172 179.385C167.502 179.639 167.553 179.943 167.426 180.73C167.349 181.314 167.349 182.178 167.426 182.686C167.578 183.498 167.679 183.574 168.467 183.574C168.949 183.574 169.355 183.676 169.355 183.828C169.355 183.955 169.178 184.006 168.974 183.93C168.695 183.803 168.543 184.006 168.441 184.564C168.263 185.402 168.162 185.479 167.603 185.123C167.349 184.945 167.019 185.047 166.613 185.377C166.156 185.732 165.902 185.783 165.648 185.58C165.42 185.377 165.09 185.529 164.353 186.189C162.678 187.688 161.687 187.992 161.078 187.205C160.773 186.799 160.722 186.824 160.367 187.662C160.113 188.271 159.707 188.703 159.148 188.932C157.752 189.49 155.898 190.938 155.746 191.598C155.67 191.928 155.416 192.207 155.238 192.207C155.035 192.207 154.553 192.41 154.172 192.664C153.258 193.273 152.648 193.629 151.506 194.238C150.515 194.797 150.008 195.533 150.515 195.711C150.693 195.762 150.82 196.066 150.82 196.371C150.82 196.803 151.049 196.98 151.887 197.209C152.801 197.463 153.029 197.438 153.562 197.031C153.892 196.752 154.654 196.473 155.263 196.396C156.508 196.193 156.863 196.396 159.58 198.707C160.418 199.418 161.484 200.205 161.941 200.434C162.703 200.84 162.83 200.84 163.642 200.434C164.125 200.205 164.531 199.926 164.531 199.824C164.531 199.443 165.699 199.164 166.512 199.367C167.4 199.596 167.553 200.078 166.918 200.611C166.461 200.992 166.613 201.855 167.324 202.846C167.603 203.201 167.959 204.166 168.111 204.979C168.39 206.35 168.365 206.502 167.832 207.238C167.349 207.898 167.299 208.203 167.426 209.32C167.527 210.057 167.476 210.945 167.349 211.326C167.172 211.783 167.172 212.037 167.375 212.164C167.679 212.367 166.258 213.027 165.521 213.027C164.912 213.027 164.912 213.154 165.521 214.018C165.851 214.449 166.588 214.906 167.654 215.287C169.051 215.77 169.355 215.998 169.584 216.633L169.863 217.395L172.047 217.217C174.586 217.014 175.779 216.582 176.617 215.566C176.972 215.16 177.633 214.703 178.115 214.551C178.597 214.398 179.004 214.119 179.004 213.967C179.004 213.789 179.232 213.51 179.486 213.357C179.74 213.18 180.146 212.494 180.375 211.809C180.756 210.641 180.984 210.412 182.838 209.244C185.072 207.797 185.834 207.441 186.722 207.441C187.408 207.441 190.049 206.324 190.303 205.918C190.379 205.766 191.013 205.385 191.699 205.029C192.359 204.699 192.969 204.293 193.019 204.115C193.121 203.811 194.644 203.734 195.482 204.014C195.888 204.141 195.99 204.09 195.863 203.785C195.787 203.557 195.787 203.176 195.888 202.922C195.99 202.693 196.117 202.312 196.142 202.059C196.168 201.83 196.371 201.348 196.599 200.992C196.98 200.408 197.209 200.332 198.453 200.332C200.053 200.332 201.678 201.018 202.135 201.932C202.541 202.693 202.896 202.871 203.429 202.592C203.683 202.439 204.115 202.389 204.369 202.49C204.674 202.592 204.902 202.439 205.105 201.982C205.435 201.297 205.435 201.297 207.974 201.754C208.406 201.83 208.762 201.703 209.092 201.348C209.345 201.068 209.777 200.84 210.031 200.84C210.615 200.84 212.012 200.154 212.012 199.85C212.012 199.723 211.834 199.469 211.605 199.291C211.072 198.859 211.25 196.193 211.859 195.533C212.088 195.279 212.265 194.975 212.265 194.822C212.265 194.67 212.469 194.594 212.722 194.645C212.976 194.721 213.433 194.492 213.84 194.061L214.525 193.35L213.586 192.588C212.722 191.902 212.443 191.826 210.387 191.725C208.482 191.648 207.974 191.725 207.06 192.182C206.375 192.537 205.918 192.943 205.816 193.324C205.588 194.264 204.394 194.441 203.379 193.68C202.871 193.299 202.617 192.943 202.693 192.664C202.896 191.928 201.881 192.105 201.601 192.842C201.474 193.197 201.246 193.477 201.094 193.477C200.967 193.477 200.84 193.68 200.84 193.908C200.84 194.162 200.687 194.568 200.51 194.797C200.078 195.355 197.844 196.523 197.209 196.523C196.929 196.523 196.574 196.676 196.422 196.879C196.015 197.361 194.746 197.641 194.746 197.234C194.746 196.879 192.054 195.508 191.394 195.508C190.937 195.508 189.922 194.467 189.922 193.984C189.922 193.781 190.15 193.4 190.429 193.096C190.861 192.639 190.887 192.436 190.658 191.572C190.277 190.252 188.424 188.373 187.662 188.576C187.281 188.678 187.129 188.602 187.129 188.297C187.129 188.068 186.976 187.891 186.773 187.891C186.57 187.891 186.367 187.764 186.316 187.586C186.24 187.357 186.012 187.357 185.402 187.611C184.97 187.789 184.387 187.865 184.158 187.764C183.752 187.611 183.803 187.535 184.412 187.23C185.301 186.748 185.275 185.783 184.412 185.656C183.625 185.529 183.676 184.895 184.463 184.691C185.199 184.514 185.326 184.082 184.64 184.082C184.158 184.082 183.041 184.844 182.101 185.783C181.797 186.113 181.365 186.367 181.137 186.367C180.806 186.367 180.832 186.266 181.238 185.682C181.517 185.275 182.051 184.691 182.406 184.361C183.066 183.727 183.269 182.863 182.812 182.406C182.685 182.279 182.635 181.264 182.736 179.943L182.888 177.734H183.929C184.539 177.734 185.25 177.531 185.605 177.303C185.935 177.049 186.9 176.49 187.763 176.084C188.855 175.551 189.388 175.094 189.617 174.535C189.82 174.129 190.226 173.672 190.506 173.52C191.217 173.215 191.369 172.25 190.81 171.641C190.582 171.387 190.429 171.006 190.48 170.828C190.556 170.625 190.709 170.701 190.912 171.082C191.064 171.387 191.369 171.641 191.572 171.641C191.801 171.641 191.953 171.971 192.004 172.58C192.105 173.773 192.816 174.027 193.273 173.037C193.527 172.453 193.502 172.199 193.045 171.311C192.283 169.787 192.156 169.381 192.054 167.832C191.953 166.309 192.283 165.395 192.689 166.029C192.816 166.232 192.994 167.02 193.095 167.781C193.197 168.543 193.476 169.508 193.756 169.965C194.01 170.396 194.238 171.031 194.238 171.361C194.238 171.92 194.263 171.945 194.695 171.59C194.924 171.361 195.406 171.107 195.736 171.006C196.066 170.904 197.336 169.838 198.529 168.619C200.383 166.766 200.89 166.385 201.906 166.182C202.541 166.029 203.328 165.979 203.607 166.105C203.887 166.207 204.47 166.156 204.902 166.029C205.969 165.648 206.426 165.877 206.426 166.816C206.426 167.35 206.146 167.908 205.486 168.619C204.597 169.609 204.572 169.66 205.156 169.559C205.664 169.508 206.045 169 207.01 167.197C207.67 165.928 208.33 164.887 208.457 164.836C208.584 164.785 209.092 164.48 209.599 164.125C210.107 163.795 210.717 163.516 210.996 163.516C211.25 163.516 211.554 163.389 211.631 163.262C211.859 162.881 213.586 162.982 214.144 163.389C214.525 163.693 214.576 163.947 214.449 164.836C214.297 165.826 214.322 165.877 214.627 165.42C214.83 165.141 215.236 164.15 215.541 163.211C215.972 161.941 216.353 161.307 216.988 160.773C219.222 158.945 221.609 158.412 221.914 159.707C222.066 160.316 222.092 160.291 222.803 159.199C223.209 158.564 223.894 157.473 224.351 156.762L225.189 155.467L227.017 155.314C228.084 155.213 228.998 155.01 229.252 154.781C229.48 154.578 230.064 154.426 230.547 154.451C231.029 154.477 231.74 154.4 232.146 154.299C232.705 154.146 232.832 154.197 232.832 154.553C232.857 155.67 233.238 155.594 234.685 154.248C235.599 153.41 236.133 152.699 236.133 152.344C236.133 152.039 236.336 151.48 236.615 151.125C236.869 150.744 237.123 150.135 237.199 149.754C237.301 149.17 237.224 149.068 236.666 148.992C235.929 148.916 235.955 149.043 236.285 145.92C236.437 144.32 236.539 144.143 237.453 143.33C238.012 142.873 238.748 142.416 239.103 142.314C239.459 142.238 240.119 141.883 240.551 141.553C240.982 141.223 241.642 140.842 242.049 140.689C242.429 140.537 242.734 140.283 242.734 140.105C242.734 139.928 243.013 139.191 243.344 138.48L243.953 137.186L248.472 137.16C253.652 137.109 255.582 136.932 256.344 136.424C256.801 136.145 256.978 135.561 257.334 133.225C257.74 130.533 258.756 127.791 259.492 127.334C259.822 127.131 259.822 125.658 259.492 124.795C259.34 124.414 258.654 123.475 257.969 122.688C256.928 121.52 256.699 121.088 256.699 120.326C256.699 119.463 256.623 119.361 255.404 118.803C254.135 118.193 254.135 118.193 254.262 117.178C254.541 114.816 254.795 114.131 255.353 114.055C255.658 114.004 256.14 114.105 256.445 114.258C257.41 114.791 259.162 112.912 258.476 112.1C258.121 111.668 257.207 111.592 257.207 111.998C257.207 112.125 257.105 112.176 256.953 112.1C256.826 112.023 256.064 111.846 255.303 111.719C254.262 111.541 253.703 111.287 253.144 110.729C252.713 110.322 252.383 109.916 252.383 109.865C252.383 109.738 253.855 109.459 254.947 109.357C255.912 109.281 256.344 108.799 256.674 107.479C257.004 106.209 258.121 104.965 259.314 104.559C259.695 104.406 260 104.229 260 104.127C260 104.025 259.72 103.264 259.39 102.426C258.832 101.029 258.705 100.902 257.613 100.547C256.547 100.191 255.963 99.7344 255.937 99.2266C255.937 99.1504 256.344 98.9219 256.826 98.7695C257.308 98.6172 257.765 98.3887 257.842 98.2617C258.121 97.8047 257.638 96.7129 256.978 96.3828C256.394 96.0781 256.064 96.0781 254.642 96.4082C253.094 96.7891 252.89 96.7891 251.824 96.3828C250.758 95.9766 250.377 95.5449 249.996 94.377C249.869 93.9961 249.513 93.9453 247.33 93.9453H244.816L244.004 92.9297C243.115 91.8125 242.277 91.6094 241.795 92.4219C241.617 92.7012 241.109 93.1074 240.678 93.3359C239.916 93.7168 239.865 93.7168 239.205 93.1074C238.849 92.752 238.215 92.3711 237.834 92.2695C237.275 92.1426 237.148 91.9902 237.224 91.6094C237.326 91.2539 237.097 90.9492 236.31 90.4414C235.599 89.959 235.244 89.8574 235.168 90.0859C235.117 90.2637 234.609 90.3906 233.924 90.3906C232.984 90.3906 232.654 90.2637 232.045 89.6035C231.638 89.1719 231.308 88.7148 231.308 88.5879C231.308 88.4609 230.521 88.3594 229.531 88.3594C227.678 88.3594 227.601 88.4102 228.008 89.5273C228.16 89.8828 228.211 90.5684 228.109 91.0254C227.982 91.7617 227.881 91.8379 227.347 91.6855C226.992 91.6094 226.51 91.1777 226.23 90.7715C225.951 90.3398 224.859 89.5273 223.64 88.8418L221.533 87.6738L221.457 86.5059C221.406 85.5664 221.228 85.2109 220.619 84.6777C220.187 84.3223 219.705 84.043 219.527 84.043C219.349 84.043 218.994 83.8145 218.74 83.5352C218.334 83.0781 218.334 83.0273 218.715 82.875C218.943 82.7734 219.121 82.4434 219.121 82.0117C219.121 81.3262 219.095 81.3008 218.308 81.5293C217.851 81.6562 217.115 81.7578 216.683 81.7578C216.201 81.7578 215.312 82.1387 214.322 82.7734C213.103 83.5605 212.519 83.7891 211.631 83.7891C210.742 83.7891 210.158 84.0176 208.914 84.8047C206.959 86.0742 206.426 86.2266 205.461 85.7188C205.029 85.4902 204.217 85.3125 203.658 85.3125C203.099 85.3125 202.566 85.1855 202.49 85.0586C202.414 84.9062 201.652 84.3477 200.84 83.7891C198.961 82.5195 197.894 82.4688 194.949 83.5605C191.877 84.6777 191.953 84.6523 191.953 84.2207C191.953 83.9922 191.597 83.4082 191.166 82.9258C190.074 81.6562 189.896 80.8438 190.353 78.8125C190.76 76.8574 190.582 75.7656 189.592 74.166C189.312 73.6836 188.982 72.668 188.881 71.9062C188.678 70.4336 188.195 69.8496 187.179 69.8242C186.24 69.8242 185.656 69.3926 185.351 68.4277C184.793 66.7266 183.701 66.4727 180.832 67.4375C179.334 67.9453 178.75 67.8945 178.75 67.3105C178.75 67.0312 178.42 66.5742 178.013 66.2949C177.404 65.8633 176.896 65.7617 175.22 65.7617C173.012 65.7617 172.808 65.6094 173.57 64.5176C174.002 63.9336 173.875 63.7051 173.062 63.4004C172.91 63.3496 172.935 63.0195 173.088 62.5625C173.494 61.4453 173.189 60.252 172.301 59.2871L171.488 58.4492L172.402 58.1699C172.885 58.0176 173.672 57.6621 174.103 57.3828C174.89 56.9004 174.916 56.8242 174.789 55.6816C174.611 54.3105 173.824 53.2949 172.377 52.5332C171.59 52.1523 171.31 51.7461 170.65 50.1719C170.219 49.1309 169.863 48.1152 169.863 47.8867C169.863 47.6836 169.609 47.2012 169.279 46.7949C168.949 46.4141 168.314 45.5254 167.857 44.8398C166.969 43.5703 165.47 42.6562 164.277 42.6816C163.922 42.707 162.906 42.8594 162.017 43.0625Z" fill="url(#paint0_linear_1787_6040)"/>
<defs>
<linearGradient id="paint0_linear_1787_6040" x1="130.07" y1="42.6811" x2="130.07" y2="217.395" gradientUnits="userSpaceOnUse">
<stop stop-color="#D65F00"/>
<stop offset="1" stop-color="#703200"/>
</linearGradient>
</defs>
</svg>
